<?xml version="1.0" encoding="UTF-8"?>
<svg width="68px" height="41px" viewBox="0 0 68 41" version="1.1" xmlns="http://www.w3.org/2000/svg" xmlns:xlink="http://www.w3.org/1999/xlink">
    <g id="Page-1" stroke="none" stroke-width="1" fill="none" fill-rule="evenodd">
        <g id="Artboard" transform="translate(-479.000000, -3848.000000)" fill="#FFFFFF">
            <g id="noun_Arrow-Right_1098848" transform="translate(479.000000, 3848.000000)">
                <g id="Group" transform="translate(0.000000, 0.637820)">
                    <path d="M67.9986416,19.9519908 C67.9899098,19.5241447 67.7919835,19.1035294 67.4674073,18.8227602 L45.8314756,0.371363844 C45.384878,-0.0149437731 44.7060064,-0.111097601 44.168822,0.135979274 C43.6316377,0.383056149 43.2654037,0.959825267 43.2718637,1.54859438 L43.2718637,10.7742849 L1.54542314,10.7742849 C0.736262035,10.7743618 7.72727023e-05,11.5068232 -1.42108547e-14,12.3119 L-1.42108547e-14,27.6880662 C8.49999726e-05,28.493143 0.736262035,29.2256044 1.54542314,29.2256813 L43.2718637,29.2256813 L43.2718637,38.4513718 C43.2656819,39.0401409 43.6316377,39.61691 44.168822,39.8639869 C44.7060141,40.1110638 45.384878,40.01491 45.8314756,39.6286023 L67.4674073,21.1772213 C67.8166644,20.8756829 68.0178516,20.411683 67.9986416,19.9519908 Z" id="Path"></path>
                </g>
            </g>
        </g>
    </g>
</svg>