<?xml version="1.0" encoding="UTF-8"?>
<svg width="174px" height="112px" viewBox="0 0 174 112" version="1.1" xmlns="http://www.w3.org/2000/svg" xmlns:xlink="http://www.w3.org/1999/xlink">
    <!-- Generator: Sketch 52.5 (67469) - http://www.bohemiancoding.com/sketch -->
    <title>bracknell-logo</title>
    <desc>Created with Sketch.</desc>
    <g id="Page-1" stroke="none" stroke-width="1" fill="none" fill-rule="evenodd">
        <g id="Logos" transform="translate(-188.000000, -1.000000)">
            <g id="bracknell-logo" transform="translate(188.000000, 1.000000)">
                <rect id="Rectangle" fill="#FFFFFF" x="0" y="0" width="174" height="112"></rect>
                <g transform="translate(24.000000, 6.000000)" fill="#415F11">
                    <path d="M43.85508,47.5475618 C44.102584,48.2715843 43.639816,53.5332921 42.100852,55.2441011 C40.889992,56.3929213 39.504292,57.3432472 37.995212,58.0599775 C36.32704,58.8914045 34.158528,60.4573596 33.098452,60.8489101 C32.046064,61.2533146 30.894228,61.3246292 29.799804,61.0527191 C29.615168,60.9971011 29.435368,60.9270225 29.261644,60.8435955 C28.404432,60.3424157 27.689448,59.6317416 27.18452,58.7785618 C27.023816,58.4716742 26.89746,58.1477303 26.807808,57.8131573 C26.671656,57.3407753 26.645864,56.843427 26.73254,56.3595506 C26.784744,56.1564831 26.76974,55.9419213 26.689512,55.7481236 C26.54654,55.4657079 26.349008,55.214191 26.108324,55.0080337 C25.776376,54.768382 25.566072,54.3961124 25.532468,53.9889888 C25.536436,53.8692247 25.56198,53.7510674 25.607736,53.6404494 C25.909056,52.9645056 27.249,52.4550449 28.836448,52.4550449 C30.55298,52.4550449 31.968192,53.0343371 32.135096,53.774427 C32.135096,53.774427 32.355692,54.6916292 31.570028,54.9598315 C31.055676,55.1192697 30.528056,55.2323596 29.993368,55.2977416 C29.729744,55.2977416 28.497432,55.5336854 28.196112,56.0431461 C27.813448,56.8632022 27.948112,57.8307079 28.54046,58.5157978 C28.871416,58.8766966 29.284956,59.1525618 29.745864,59.3204045 C30.139316,59.4410337 30.550624,59.4935618 30.961932,59.4758876 C31.560852,59.4205169 32.14638,59.2663933 32.694708,59.0200674 C33.512612,58.6445843 34.045316,57.947382 34.879464,57.3520225 C37.031856,55.812764 40.109784,54.8525506 41.299068,53.2597753 C42.305328,51.5540337 42.251512,49.505191 43.365404,47.4886067 C43.365404,47.4886067 43.483824,47.2741685 43.634484,47.3008652 C43.759228,47.316809 43.853344,47.4221124 43.85508,47.5475618 Z" id="Path"></path>
                    <path d="M57.216204,31.4999213 C57.28614,31.7949438 55.009996,31.7626854 54.56868,33.7739551 C53.81538,37.2120112 50.053964,36.2143483 48.111504,38.8799326 C47.654068,39.4163371 47.218208,39.3305618 46.997612,39.1320674 C48.073808,37.7643596 49.316908,35.5921685 49.99494,34.7876854 C51.03344,33.548764 54.9723,30.9850225 57.216204,31.4999213 Z" id="Path"></path>
                    <path d="M46.92222,19.9362022 C47.981924,21.2906854 48.566088,22.9546517 48.584936,24.6721348 C56.34436,22.6447978 62.726392,18.3484944 62.382044,9.37533708 C62.161944,6.29064045 61.358548,3.2752809 60.014388,0.488078652 C59.88518,0.198370787 60.014388,0.0589550562 60.014388,0.0589550562 C60.197412,-0.0912134831 60.401764,0.107280899 60.401764,0.107280899 C63.054744,3.50776404 65.48688,12.3253146 63.479692,17.1256404 C60.649268,23.9051011 54.999084,25.5999663 51.140948,28.0242921 C49.856184,28.843236 48.690088,29.8341011 47.67552,30.9688315 C46.599324,32.1433596 44.613712,35.5332135 44.064888,36.6971124 C44.064888,36.6971124 43.962588,34.605382 41.024532,33.2751236 C40.680184,33.1196404 45.458524,27.852618 45.937412,25.1064494 C46.5186,21.7596067 44.323056,17.2327978 41.568024,16.5248427 C41.568148,16.4928315 44.12416,16.256764 46.92222,19.9362022 Z" id="Path"></path>
                    <path d="M61.65032,28.147764 C61.990576,30.3089551 61.590676,32.5215618 60.514852,34.4283933 C59.684424,35.9653034 58.59186,37.3464831 57.286264,38.5100112 C56.140132,39.6363371 54.622744,40.2424494 53.304376,41.1917865 C51.689896,41.0576854 50.118816,40.8699438 49.069404,40.1673034 C53.557212,39.7596854 57.630736,36.144764 58.507788,33.2537416 C58.90062,31.9128539 59.465688,29.0272697 57.840544,28.963 C56.538296,28.9308652 54.784192,29.8694494 53.428128,30.5720899 C51.87292,31.3712584 49.419208,32.7174607 49.203944,32.1222247 C48.612092,31.1084944 51.587844,29.1507416 53.325828,28.2550449 C55.67724,27.0482584 59.562408,25.4123483 61.65032,28.147764 Z" id="Path"></path>
                    <path d="M48.100716,41.8353483 C48.434276,42.4199551 48.488092,42.9081573 48.21368,43.9110112 C46.976036,48.464764 48.493548,55.0134719 48.471972,59.9104494 C48.471972,60.5970225 49.419084,68.041427 47.395652,68.095191 C46.933008,68.041427 46.373272,64.7215281 46.238732,62.8496742 C45.996684,59.4384382 45.254048,56.1346067 45.34556,52.562573 C45.485432,47.998191 45.259504,44.9248652 46.836164,41.6584831 C46.965248,41.3366404 47.428016,41.3580225 47.428016,41.3580225 C47.534408,41.355427 47.639932,41.3795281 47.734792,41.4277303 C47.891652,41.5280899 48.018008,41.6689888 48.100716,41.8353483 Z" id="Path"></path>
                    <path d="M27.464264,73.8449775 C26.538728,73.8449775 26.425764,72.2680225 26.280436,71.4849213 C26.102868,70.5142022 26.215832,69.3074157 26.032808,68.0683708 L25.978992,67.7465281 L25.742152,67.9986629 C23.9072,69.9993034 21.975404,72.139236 17.98806,72.3966854 C15.771064,72.5415393 13.39262,72.2840899 11.057204,72.6541348 C8.576584,73.0456854 6.074264,74.5474944 3.868056,75.2125618 C2.708904,75.5161124 1.477956,75.3802809 0.413416,74.831764 C-0.0923800004,74.6440225 0.0798559996,74.3972022 0.0798559996,74.3972022 C0.597804,73.9082584 1.219292,73.5416742 1.898688,73.3245169 C3.588312,72.7881124 8.51198,70.7500225 9.598964,70.508764 C13.215052,69.7149101 17.13246,70.7554607 20.511708,69.8705169 C22.965544,69.2268315 25.354652,65.7190674 26.032684,63.0909326 C26.328672,61.9377865 26.570844,61.1815056 27.006704,61.1331798 C27.2118,61.1110562 27.40772,61.2238989 27.490924,61.4121348 C27.977004,63.1793034 28.19822,65.0083933 28.14738,66.8399551 C28.039748,69.194573 28.879228,73.458618 27.856848,73.8125955 C27.727888,73.838427 27.596076,73.8493034 27.464264,73.8449775 Z" id="Path"></path>
                    <path d="M42.773428,42.8598315 C41.584144,42.4682809 39.587868,42.8598315 38.920624,43.1441011 C37.844304,43.6106742 37.672192,44.9301798 37.58068,45.7561685 C37.538148,45.9791348 37.549308,46.2087753 37.61292,46.4266742 C37.715344,46.6197303 37.94586,46.7071124 38.15108,46.6303596 C38.25338,46.6303596 38.802204,46.5016966 38.99056,46.4586854 C40.60504,46.2173034 41.966312,46.4586854 42.601316,45.1499326 C42.794384,44.7226629 42.912556,44.2654831 42.950996,43.7982921 C43.069416,43.0583258 42.773428,42.8598315 42.773428,42.8598315 Z M41.261372,44.3563258 C41.07438,44.3465618 40.891356,44.2991011 40.723212,44.2167865 C40.626368,44.0505506 40.782484,43.6805056 40.782484,43.6805056 C40.880692,43.4198427 41.17234,43.2877191 41.433856,43.3856067 C41.62928,43.4587753 41.759604,43.6440449 41.76196,43.8520562 C41.746212,44.1217416 41.531816,44.3377865 41.261372,44.3563258 Z" id="Shape" fill-rule="nonzero"></path>
                    <path d="M29.299216,31.725236 C28.330652,30.8831798 27.146824,28.759191 26.81314,26.6942809 C26.503884,24.4450899 26.912464,22.1557303 27.980848,20.150764 C28.31106,19.4651798 28.77792,18.8538764 29.353032,18.3539326 C28.83806,18.3634494 28.336356,18.5178202 27.90558,18.7991236 C27.90558,18.7991236 26.05984,19.7913483 25.123516,22.6661798 C24.989224,23.0258427 24.883204,23.3951461 24.805952,23.7711236 L24.725228,23.7711236 C23.425088,23.4219663 22.16314,22.9440225 20.95848,22.3444607 C18.267928,20.9606854 15.851788,18.59 15.17388,15.4951685 C14.377428,11.8533034 15.900272,8.52265169 17.568444,5.8408764 C17.600436,5.77401124 17.574396,5.69404494 17.509172,5.65844944 C17.39534,5.60369663 17.262536,5.60369663 17.148704,5.65844944 C16.21238,6.10364045 11.121808,11.3223371 13.973808,19.0672022 C15.512772,23.2454719 21.060656,25.9701348 23.783448,27.1125281 C23.783448,27.1125281 24.047072,27.2090562 24.251548,27.2734494 C24.367984,28.6001236 24.565764,29.9183933 24.8434,31.2209663 C25.053704,32.1930449 25.384536,33.1353371 25.828084,34.0260899 C25.166172,34.8575169 25.236232,36.4181573 24.751888,37.4105056 C24.751888,37.4105056 24.568988,37.7859888 24.428992,38.054191 L24.391296,38.1132697 L24.213728,37.9684157 C22.922268,36.8420899 22.830756,34.9487303 22.125816,33.5381348 C20.624548,30.5507079 17.788668,29.4296966 14.59232,28.1156292 C13.397704,28.8879775 13.505336,30.5720899 13.779748,32.208 C14.059616,33.9618202 15.055088,35.6836292 15.7976,37.217573 C16.445872,38.4577303 17.478172,39.4565056 18.740988,40.0655843 C19.930272,40.5482247 21.173248,40.7038315 21.689832,39.8296404 C21.73782,39.7397865 21.717856,39.6289213 21.641348,39.5614382 C21.582076,39.4541573 21.216276,39.3630674 21.216276,39.3630674 C20.791204,39.1967079 20.414492,39.0680449 20.0539,38.9446966 C17.63776,37.9791685 17.040452,36.5417528 17.040452,36.5417528 C15.964256,34.5894382 14.979448,32.1543596 15.964256,30.5293258 C18.2404,31.4625955 18.283552,31.3392472 19.731004,32.9589663 C20.9095,34.2837865 20.570484,36.4077753 21.436872,38.049 C21.700496,38.5531461 22.986624,38.960764 23.530116,39.4917303 L23.573144,39.5347416 C23.535448,39.5830674 23.400908,39.8779663 23.400908,39.8779663 C23.400908,39.8779663 22.798268,41.3261348 23.583932,42.4094494 C24.2296,43.4821348 24.202692,44.9624382 25.278888,45.6920225 C25.542512,45.8743258 25.816924,46.029809 26.478836,46.4266742 C27.060024,46.7698989 27.85102,47.0918652 27.974772,46.8719888 C28.233064,44.4799213 28.066284,41.6478539 25.1658,42.3827528 C25.343368,39.3630674 27.711024,36.0859326 27.88326,35.7642135 C28.4704,34.8020225 29.413544,34.1085281 30.509208,33.8332809 C31.77376,33.484618 33.043644,33.5382584 34.049904,32.4977079 C32.258848,32.2346966 30.4885,32.7656629 29.299216,31.725236 Z M26.016812,43.3480337 C26.228976,43.3488989 26.418076,43.4816404 26.490368,43.6805056 C26.490368,43.6805056 26.64636,44.0505506 26.549516,44.2167865 C26.381496,44.2989775 26.198348,44.3464382 26.01148,44.3563258 C25.738928,44.340382 25.521556,44.1237191 25.505684,43.8521798 C25.508536,43.5737191 25.73744,43.3502584 26.016688,43.3532247 C26.018548,43.3532247 26.020408,43.3533483 26.022268,43.3533483 L26.016812,43.3480337 Z" id="Shape" fill-rule="nonzero"></path>
                    <polygon id="Path" points="63.399092 68.8890449 63.399092 66.8508315 56.19928 66.8508315 56.19928 79.948618 58.453972 79.948618 58.453972 74.0487865 63.399216 74.0487865 63.399216 72.0106966 58.453972 72.0106966 58.453972 68.8944831"></polygon>
                    <path d="M71.981876,72.4450112 C71.094904,71.5870112 69.897312,71.1226629 68.661776,71.1578876 C67.418304,71.120809 66.211412,71.5803371 65.309436,72.434382 C63.541072,74.1865955 63.532764,77.0357191 65.290712,78.798191 C65.297036,78.8044944 65.303236,78.8107978 65.309436,78.8168539 C66.192812,79.6618764 67.378748,80.1195506 68.602628,80.0879101 C69.8461,80.1253596 71.054976,79.6769551 71.971212,78.8383596 C72.856944,78.0305393 73.349348,76.8808539 73.321944,75.684573 C73.349844,74.4653034 72.863764,73.2901573 71.981876,72.4450112 Z M70.480608,77.411573 C69.988328,77.8853146 69.32406,78.1389326 68.640324,78.1143371 C67.95076,78.1407865 67.279796,77.8893933 66.77834,77.4170112 C66.293748,76.945 66.033348,76.2896966 66.062736,75.6148652 C66.034588,74.9337303 66.287424,74.2710112 66.762344,73.7804607 C67.233048,73.2995506 67.886156,73.0403708 68.5596,73.067191 C69.259332,73.0418539 69.939224,73.3014045 70.442912,73.7858989 C71.42276,74.7908539 71.434664,76.3868427 70.46982,77.4062584 L70.480608,77.411573 Z" id="Shape" fill-rule="nonzero"></path>
                    <path d="M80.769136,71.9998202 C80.222544,71.4123708 79.472344,71.0538202 78.670436,70.9968427 C77.890228,70.9968427 77.14226,71.5332472 76.394416,72.6060562 L76.394416,71.1739551 L74.311836,71.1739551 L74.311836,79.948618 L76.410536,79.948618 L76.410536,75.3627303 C76.395036,74.7587191 76.584632,74.167191 76.948696,73.6839326 C77.217032,73.272236 77.672236,73.019236 78.164764,73.0081124 C78.726732,73.0706517 79.245052,73.3403371 79.617672,73.7643933 L79.81136,73.9468202 L80.88768,72.1178539 L80.769136,71.9998202 Z" id="Path"></path>
                    <path d="M88.840792,75.480764 C88.897956,74.3072247 88.527196,73.1527191 87.796836,72.2304494 C87.095492,71.411382 86.056744,70.9569213 84.9772,70.9968427 C83.848304,70.9626067 82.761816,71.4255955 82.006904,72.2627079 C81.23302,73.1535843 80.825556,74.3030225 80.866104,75.480764 C80.849736,76.2924157 81.034496,77.0956629 81.404264,77.8193146 C81.742784,78.4669551 82.23866,79.0201685 82.846384,79.4284045 C83.553308,79.8617303 84.374064,80.0746854 85.203252,80.0397079 C85.817052,80.0495955 86.429364,79.9738315 87.022084,79.8145169 C87.58306,79.6460562 88.114772,79.392809 88.598744,79.0636742 L88.695588,78.9992809 L88.695588,76.8539101 L88.356572,77.1006067 C87.521308,77.7251348 86.505748,78.0636629 85.461544,78.0661348 C84.1712,78.1453596 83.060904,77.1668539 82.98142,75.8807191 C82.981172,75.878 82.981048,75.8751573 82.980924,75.8724382 L88.840916,75.8724382 L88.840916,75.480764 L88.840792,75.480764 Z M84.9772,72.863382 C85.447408,72.8344607 85.908316,73.0036629 86.247084,73.3299551 C86.532284,73.6506854 86.704272,74.0557079 86.73676,74.4831011 L83.066856,74.4831011 C83.155268,74.0515056 83.364084,73.6536517 83.669496,73.3352697 C84.020292,73.017382 84.481572,72.8480562 84.9555,72.863382 L84.9772,72.863382 Z" id="Shape" fill-rule="nonzero"></path>
                    <path d="M93.882756,74.7299213 L93.29636,74.3974494 C92.974456,74.2352921 92.674376,74.0334607 92.403064,73.7967753 C92.284768,73.6951798 92.212848,73.5499551 92.204044,73.3944719 C92.200944,73.2449213 92.279064,73.105382 92.40852,73.0297416 C92.60506,72.9087416 92.834212,72.8507753 93.064976,72.8635056 C93.892924,72.9480449 94.685532,73.2415843 95.368028,73.716191 L95.690924,73.9092472 L95.690924,71.7638764 L95.577836,71.7047978 C94.77754,71.2525618 93.877052,71.005618 92.95722,70.9862135 C92.211112,70.9559326 91.478024,71.1875506 90.885552,71.6405281 C90.351112,72.0556854 90.044088,72.6976404 90.05686,73.3729663 C90.05872,73.9217303 90.24844,74.4535618 90.594896,74.8800899 C91.210804,75.531191 91.940172,76.0654944 92.747288,76.4570449 C93.09982,76.6414494 93.431768,76.8625618 93.737428,77.1166742 C93.857088,77.2377978 93.92132,77.4026742 93.914996,77.572618 C93.902348,77.7555393 93.796948,77.919427 93.635128,78.0070562 C93.407092,78.1561124 93.13826,78.2311348 92.865708,78.2214944 C92.469156,78.199 92.080416,78.1025955 91.719576,77.9372247 C91.230644,77.7319326 90.765148,77.4747303 90.331272,77.1703146 L89.997712,76.9342472 L89.997712,79.2512921 L90.116008,79.3103708 C90.59812,79.5536067 91.10032,79.754573 91.617276,79.9110449 C92.069008,80.0267303 92.534008,80.0825955 93.000248,80.0774045 C93.793972,80.1096629 94.573684,79.8607416 95.201124,79.3746404 C95.770408,78.930191 96.097272,78.2449775 96.083508,77.5242921 C96.083632,76.499809 95.346452,75.5557865 93.882756,74.7299213 Z" id="Path"></path>
                    <path d="M102.91752,77.6261348 C102.385188,77.9572472 101.774364,78.1422697 101.147296,78.1625393 C100.727556,78.1625393 100.1734,78.0390674 100.1734,76.9448764 L100.1734,73.0832584 L102.804804,73.0832584 L102.804804,71.1739551 L100.1734,71.1739551 L100.1734,69.1411798 L96.627248,72.6221236 L96.627248,73.0886966 L98.09082,73.0886966 L98.09082,76.5749551 C98.0685,77.1138315 98.106444,77.653573 98.203908,78.1840449 C98.263304,78.4328427 98.359404,78.671382 98.489108,78.8921236 C98.608024,79.079618 98.754964,79.2478315 98.924968,79.3909551 C99.488796,79.8711236 100.21246,80.1236292 100.953608,80.0989101 C101.716208,80.1122584 102.46926,79.9274831 103.13824,79.5626292 L103.245872,79.5035506 L103.245872,77.4762135 L102.91752,77.6261348 Z" id="Path"></path>
                    <path d="M62.645668,54.1715393 C63.644984,53.690382 64.274408,52.6761573 64.260148,51.5702247 C64.304912,50.2530674 63.53946,49.0415843 62.328352,48.5130899 C61.519872,48.1846966 60.649764,48.0346517 59.777672,48.0732135 L56.23152,48.0732135 L56.23152,61.1440562 L60.751692,61.1440562 C61.6187,61.1707528 62.480376,60.9982135 63.270008,60.6399101 C63.896084,60.3467416 64.431392,59.8909213 64.81976,59.3205281 C65.17874,58.7702809 65.36598,58.1263483 65.35792,57.4700562 C65.37156,56.6323258 65.056848,55.8221573 64.480868,55.2119663 C63.974328,54.7067079 63.340316,54.3472921 62.645668,54.1715393 Z M61.39736,52.9700674 C60.832044,53.3571685 60.148308,53.5337865 59.465564,53.4688989 L58.46476,53.4688989 L58.46476,50.0897978 L59.820824,50.0897978 C61.720256,50.0897978 61.940976,51.007 61.940976,51.6988876 C61.960692,52.1825169 61.761052,52.6493371 61.39736,52.9700674 Z M58.464636,55.5071124 L59.95524,55.5071124 C60.599792,55.4754719 61.245088,55.5498764 61.86546,55.7269888 C62.215388,55.8472472 62.519808,56.0719438 62.73718,56.3705506 C62.934712,56.6459213 63.040112,56.9760449 63.0385,57.314573 C63.040484,57.6506292 62.941036,57.9795169 62.7533,58.2585955 C62.569408,58.5427416 62.305412,58.766573 61.994668,58.9022809 C61.364252,59.0845843 60.707052,59.1571348 60.052084,59.1167191 L58.469968,59.1167191 L58.464636,55.5071124 Z" id="Shape" fill-rule="nonzero"></path>
                    <path d="M70.7389,52.1977191 C69.958692,52.1977191 69.210724,52.7341236 68.462756,53.806809 L68.462756,52.3747079 L66.36418,52.3747079 L66.36418,61.1440562 L68.462756,61.1440562 L68.462756,56.5529775 C68.446016,55.9471124 68.635736,55.3534831 69.000916,54.8688652 C69.268756,54.4556854 69.723712,54.2009551 70.217108,54.1876067 C70.779076,54.2501461 71.297272,54.5198315 71.670016,54.9438876 L71.863704,55.1263146 L72.940024,53.3026629 L72.816272,53.1846292 C72.272036,52.6079326 71.530764,52.2556854 70.7389,52.1977191 Z" id="Path"></path>
                    <path d="M80.101892,59.690573 C80.101892,59.690573 80.026624,59.690573 80.026624,59.4760112 L80.026624,55.9146067 C80.039024,55.423809 80.017448,54.9328876 79.96202,54.4449326 C79.913784,54.1534944 79.811608,53.8733034 79.6607,53.6189438 C79.5212,53.3694045 79.339044,53.1463146 79.12254,52.959191 C78.469804,52.4337865 77.646816,52.1647191 76.8087,52.2029101 C75.696048,52.1382697 74.61452,52.5824719 73.870644,53.4098202 L73.816828,53.4688989 L73.816828,55.8931011 L74.188084,55.4907978 C74.78998,54.720427 75.691584,54.2407528 76.668828,54.1714157 C77.28486,54.0719213 77.865056,54.4891798 77.964876,55.1032022 C77.983972,55.2208652 77.98422,55.3408764 77.96562,55.4586629 L77.96562,55.7536854 L75.990796,56.4348202 C75.342524,56.6444382 74.757864,57.0133708 74.290384,57.5076292 C73.889864,57.9271124 73.666416,58.4839101 73.666168,59.0630787 C73.648064,59.6654831 73.881928,60.248236 74.311836,60.6721685 C74.739388,61.0964719 75.323056,61.3272247 75.926192,61.3104157 C76.698092,61.3010225 77.448788,61.0577865 78.078584,60.6130899 C78.34072,61.104382 78.881112,61.3822247 79.434648,61.3104157 C79.708316,61.3049775 79.978388,61.248618 80.2311,61.1440562 C80.55846,61.0099551 80.871932,60.8447079 81.167424,60.6506629 L81.269724,60.5862697 L81.269724,59.0683933 L80.936164,59.2935843 C80.69796,59.4970225 80.41028,59.6339663 80.101892,59.690573 Z M77.9495,57.1000112 L77.9495,59.186427 C77.616932,59.5170449 77.170532,59.7088652 76.701068,59.7227079 C76.157204,59.7173933 75.720724,59.2736854 75.726056,58.7315955 C75.72866,58.4757528 75.831332,58.2307865 76.012372,58.0492247 C76.344568,57.7690337 76.725868,57.552618 77.137052,57.4109775 L77.9495,57.1000112 Z" id="Shape" fill-rule="nonzero"></path>
                    <path d="M86.456892,59.3258427 C85.736204,59.3639101 85.029652,59.1149888 84.492856,58.6339551 C83.997724,58.135618 83.737696,57.4515169 83.777128,56.7513483 C83.750468,56.0684831 83.98954,55.4015618 84.444496,54.8901236 C84.878,54.4103258 85.502836,54.1470674 86.15024,54.1715393 C86.954008,54.2119551 87.73,54.477809 88.388812,54.9384494 L88.71704,55.1422584 L88.71704,52.8574719 L88.587832,52.7983933 C88.164744,52.6036067 87.725412,52.4456517 87.27492,52.326382 C86.875764,52.2370225 86.46768,52.1938876 86.058728,52.1977191 C84.868824,52.152236 83.715872,52.6146067 82.889164,53.4688989 C82.067788,54.3778202 81.636888,55.572 81.689216,56.794236 C81.631928,58.0086854 82.07746,59.1934719 82.921528,60.0713708 C83.80788,60.9104607 84.998776,61.3539213 86.220176,61.2996629 C87.083092,61.2910112 87.937824,61.1293483 88.743948,60.8223371 L88.88382,60.7686966 L88.88382,58.6553371 L88.5825,58.7894382 C87.918728,59.1128876 87.195064,59.2955618 86.456892,59.3258427 Z" id="Path"></path>
                    <polygon id="Path" points="98.338324 52.3747079 95.798556 52.3747079 92.317008 56.2043146 92.317008 48.0517079 90.23976 48.0517079 90.23976 61.1440562 92.32234 61.1440562 92.32234 57.1106404 96.29344 61.1440562 99.118532 61.1440562 94.587696 56.6440674"></polygon>
                    <path d="M106.84584,53.8335056 C106.601188,53.3356629 106.21592,52.9198876 105.737404,52.6374719 C105.263972,52.3507303 104.720108,52.2003146 104.166076,52.2029101 C103.303036,52.2160112 102.476824,52.5531798 101.852236,53.1469326 L101.852236,52.3745843 L99.737416,52.3745843 L99.737416,61.1439326 L101.852236,61.1439326 L101.852236,55.0241011 C102.234404,54.4022921 102.907228,54.016427 103.638704,53.9997416 C104.072828,53.9512921 104.501992,54.1248202 104.779504,54.4608764 C105.059744,54.9856629 105.183,55.5794157 105.13464,56.1719326 L105.13464,61.1439326 L107.217096,61.1439326 L107.217096,56.1559888 C107.265704,55.3641124 107.138852,54.5712472 106.84584,53.8335056 Z" id="Path"></path>
                    <path d="M112.549716,52.1977191 C111.420944,52.1633596 110.334332,52.6264719 109.57942,53.4634607 C108.807892,54.3554494 108.402536,55.504764 108.444076,56.6815169 C108.426964,57.4951461 108.611848,58.3002472 108.982112,59.0255056 C109.31964,59.6722809 109.813408,60.2253708 110.4189,60.6345955 C111.126568,61.0656966 111.9472,61.2766742 112.775892,61.2405843 C113.389568,61.2501011 114.00188,61.1743371 114.5946,61.0153933 C115.155328,60.8463146 115.68704,60.5930674 116.17126,60.2645506 L116.268104,60.2001573 L116.268104,58.0547865 L115.929212,58.3014831 C115.093824,58.9260112 114.078388,59.2646629 113.03406,59.2670112 C111.74384,59.3461124 110.633544,58.3674831 110.554184,57.0813483 C110.553936,57.0768989 110.553688,57.0724494 110.55344,57.068 L116.413432,57.068 L116.413432,56.644191 C116.471216,55.4706517 116.100332,54.3158989 115.369476,53.3938764 C114.661684,52.5874157 113.623432,52.1470449 112.549716,52.1977191 Z M112.549716,54.0642584 C113.020544,54.0387978 113.480584,54.2097303 113.8196,54.5362697 C114.100584,54.8591011 114.270216,55.2632584 114.303944,55.6894157 L110.63404,55.6894157 C110.721832,55.2576966 110.930896,54.8595955 111.236556,54.5415843 C111.5938,54.2155393 112.065992,54.0439888 112.549716,54.0642584 Z" id="Shape" fill-rule="nonzero"></path>
                    <rect id="Rectangle" x="117.887792" y="48.0517079" width="2.082456" height="13.1085393"></rect>
                    <rect id="Rectangle" x="121.864348" y="48.0517079" width="2.082456" height="13.1085393"></rect>
                    <path d="M67.246564,95.3954607 C65.950888,96.2766966 64.424076,96.7597079 62.855724,96.7846742 C61.56848,96.8308989 60.315088,96.3682809 59.36872,95.497427 C57.55088,93.6820562 57.55088,90.7423371 59.36872,88.9270899 C60.305044,88.0436292 61.556204,87.5687753 62.844936,87.6075843 C64.34422,87.6450337 65.807792,88.0720562 67.090572,88.8465056 L67.408012,89.0289326 L67.408012,86.5777865 L67.278928,86.5241461 C65.857516,85.8684719 64.318676,85.5037416 62.753424,85.4514607 C60.884496,85.4048652 59.074468,86.1060225 57.72758,87.3983371 C56.389992,88.6455393 55.646736,90.4002247 55.68282,92.2256067 C55.678976,93.3985281 55.987116,94.551427 56.575992,95.5670112 C57.152096,96.5771573 57.98798,97.4158764 58.997464,97.9966517 C60.13752,98.6112921 61.4203,98.9147191 62.715728,98.8762809 C64.358728,98.9076742 65.982756,98.5219326 67.435044,97.7553933 L67.542552,97.6963146 L67.542552,95.1860899 L67.246564,95.3954607 Z" id="Path"></path>
                    <path d="M76.367384,91.233382 C75.47942,90.3767416 74.282696,89.912764 73.047408,89.9461348 C71.803812,89.9090562 70.59692,90.3687079 69.694944,91.2226292 C67.926704,92.9664382 67.911452,95.808764 69.660968,97.5713596 C69.672376,97.5827303 69.68366,97.5939775 69.694944,97.6051011 C70.57832,98.4502472 71.764256,98.9079213 72.98826,98.8762809 C74.233592,98.9155843 75.444948,98.4669326 76.362176,97.6266067 C77.247288,96.8185393 77.739568,95.6689775 77.712908,94.4728202 C77.738824,93.2530562 77.250884,92.0780337 76.367384,91.233382 Z M74.849996,96.205382 C74.357468,96.6819663 73.6901,96.9360787 73.004256,96.9081461 C72.315932,96.9373146 71.645588,96.6855506 71.147728,96.2108202 C70.6645,95.7399213 70.404348,95.0869663 70.432124,94.4139888 C70.409184,93.7327303 70.663384,93.0713708 71.137064,92.5797079 C71.60814,92.0992921 72.261,91.840236 72.93432,91.8663146 C73.635168,91.8438202 74.31568,92.1028764 74.823088,92.5850225 C75.318716,93.0560449 75.589036,93.7156742 75.5656,94.3979213 C75.58978,95.0732472 75.330372,95.7283034 74.849996,96.205382 Z" id="Shape" fill-rule="nonzero"></path>
                    <path d="M84.067784,89.9622022 L84.067784,96.0605281 C83.67024,96.6782584 82.990472,97.0583146 82.254408,97.0742584 C81.819416,97.1232022 81.3874,96.9617865 81.092032,96.6398202 C80.824564,96.1131798 80.712592,95.5216517 80.769136,94.9342022 L80.769136,89.9620787 L78.670436,89.9620787 L78.670436,94.9342022 C78.62034,95.7308989 78.745332,96.5289551 79.03636,97.2726292 C79.27568,97.7541573 79.649292,98.1563371 80.11268,98.4312135 C80.589832,98.7125169 81.134812,98.8591011 81.68934,98.8548989 C82.190796,98.8492135 82.684936,98.7338989 83.136792,98.5171124 C83.466632,98.3558202 83.772664,98.1500337 84.046208,97.9056854 L84.046208,98.7156067 L86.15024,98.7156067 L86.15024,89.9623258 L84.067784,89.9623258 L84.067784,89.9622022 Z" id="Path"></path>
                    <path d="M94.932168,91.415809 C94.688012,90.9175955 94.30262,90.5016966 93.823732,90.2196517 C93.350176,89.9332809 92.806312,89.7828652 92.252404,89.7852135 C91.389364,89.798191 90.563152,90.1353596 89.938564,90.729236 L89.938564,89.9622022 L87.823744,89.9622022 L87.823744,98.7369888 L89.916988,98.7369888 L89.916988,92.6117191 C90.299156,91.9897865 90.972104,91.6040449 91.70358,91.5873596 C92.137456,91.5398989 92.566124,91.7133034 92.844256,92.0484944 C93.123256,92.5735281 93.244652,93.1675281 93.193936,93.7595506 L93.193936,98.7421798 L95.298092,98.7421798 L95.298092,93.7487978 C95.349428,92.9538315 95.22456,92.1572584 94.932168,91.415809 Z" id="Path"></path>
                    <path d="M103.208176,96.3661798 C102.545768,96.6878989 101.824212,96.8703258 101.088024,96.9025843 C100.367212,96.9406517 99.66066,96.6917303 99.123864,96.2106966 C98.632204,95.7101348 98.372796,95.0276404 98.40826,94.3280899 C98.382344,93.6469551 98.621416,92.9820112 99.075504,92.4723034 C99.506652,91.9954719 100.1269,91.7324607 100.770584,91.7535955 C101.57398,91.7958652 102.349476,92.0614719 103.009156,92.5206292 L103.337384,92.7244382 L103.337384,90.4395281 L103.208176,90.380573 C102.7836,90.184427 102.342532,90.0264719 101.889808,89.9085618 C101.490776,89.8189551 101.082692,89.7758202 100.673616,89.7797753 C99.48272,89.7351573 98.32952,90.1995056 97.504176,91.0563933 C96.68218,91.965191 96.25128,93.1593708 96.304104,94.3817303 C96.24942,95.5937079 96.696936,96.7746629 97.541748,97.6481124 C98.428968,98.4852247 99.619864,98.9268315 100.840396,98.8710899 C101.705296,98.8642921 102.562012,98.7026292 103.3695,98.393764 L103.509496,98.34 L103.509496,96.2320787 L103.208176,96.3661798 Z" id="Path"></path>
                    <path d="M106.10866,88.8252472 C106.7702,88.8252472 107.308112,88.2937865 107.314064,87.6345281 C107.319644,87.3165169 107.190684,87.0108652 106.958928,86.7924719 C106.73238,86.5707416 106.4261,86.449 106.108784,86.4545618 C105.797172,86.4550562 105.499572,86.5829775 105.285424,86.8085393 C104.826252,87.2515056 104.814224,87.9814607 105.258516,88.4391348 C105.26732,88.4481573 105.276372,88.4571798 105.285424,88.4658315 C105.498084,88.6938652 105.796056,88.8240112 106.10866,88.8252472 Z" id="Path"></path>
                    <rect id="Rectangle" x="105.07016" y="89.9622022" width="2.077" height="8.77478652"></rect>
                    <rect id="Rectangle" x="109.019684" y="85.6392022" width="2.08258" height="13.0977865"></rect>
                </g>
            </g>
        </g>
    </g>
</svg>