<?xml version="1.0" encoding="UTF-8"?>
<svg xmlns="http://www.w3.org/2000/svg" id="Layer_1" data-name="Layer 1" viewBox="0 0 600.6667 262.2063"><defs><style>.cls-1{fill:#f69320;}.cls-2{fill:#046938;}.cls-3{fill:#65308f;}.cls-4{fill:#faaf43;}.cls-5{fill:#90298d;}.cls-6{fill:#38b34a;}.cls-7{fill:#010101;}</style></defs><path class="cls-1" d="M116.1911,29.5173,168.8775,0l-1.0422,59.9178L157.3385,53.793l-47.773,81.1548S80.15,178.2712,127.3,206.9526l-47.7021.5888s-27.9877-25.9981-4.7272-82.823L127.8281,36.42Z"/><path class="cls-2" d="M148.9352,80.398s42.67-2.01,66.6786,33.28l52.71,94.0878,12.9059-7.2312-1.817,61.0614-50.8085-30.1669,10.69-7.4005-50.1316-92s-27.9-35.9331-67.1253-7.6Z"/><path class="cls-3" d="M196.8687,160.913l25,44.6228s-17.156,39.9869-65.3318,42.254L51.6,245.8306l-1.0929,11.9146L0,228.12l51.0757-28.6172-.02,11.3156,101.8841,1.55s46.7343-3.58,43.9291-51.4548"/><polygon class="cls-1" points="115.993 187.693 115.993 161.543 127.488 154.072 127.488 187.693 115.993 187.693"/><polygon class="cls-4" points="133.522 162.119 133.522 187.694 127.488 187.694 127.488 154.072 133.522 162.119"/><polygon class="cls-3" points="138.694 148.613 149.526 140.853 149.526 187.693 138.694 187.693 138.694 148.613"/><polygon class="cls-5" points="155.361 148.9 155.361 187.692 149.524 187.692 149.524 140.853 155.361 148.9"/><polygon class="cls-2" points="159.384 135.394 170.591 127.923 170.591 187.695 159.384 187.695 159.384 135.394"/><polygon class="cls-6" points="177.2 135.969 177.2 187.694 170.591 187.694 170.591 127.922 177.2 135.969"/><path class="cls-1" d="M115.9928,187.6933s5.16,7.1468,11.4948,10.7505V187.6933Z"/><path class="cls-4" d="M133.5218,187.6933v13.7554s-3.7087-1.6885-6.0335-3.0049V187.6933Z"/><rect class="cls-3" x="138.6927" y="187.6941" width="10.8317" height="13.7553"/><rect class="cls-5" x="149.5243" y="187.6941" width="5.8372" height="13.7553"/><path class="cls-2" d="M159.3841,187.6933v13.7554a23.9926,23.9926,0,0,0,11.2073-3.3264v-10.429Z"/><path class="cls-6" d="M177.2,187.6933h-6.6086v10.429s5.4276-3.2247,6.6086-5.2144Z"/><path class="cls-7" d="M295.51,135.4265h22.9222q8.3625,0,12.1336,3.21,3.7692,3.2113,3.77,10.0057v.7462a13.2087,13.2087,0,0,1-1.68,6.9068,10.29,10.29,0,0,1-5.2629,4.2189,11.6273,11.6273,0,0,1,6.1966,4.1436,13.1343,13.1343,0,0,1,2.3148,8.1762v1.1947q0,7.6907-4.63,11.1251t-12.9913,3.4347H295.51Zm9.9309,8.1389v13.44h11.2746q4.2551,0,5.9736-1.5679,1.7155-1.5687,1.7168-5.0773v-.9711q0-3.1356-1.6053-4.48-1.607-1.3435-5.4136-1.3436Zm0,36.8846h12.3946q4.4046,0,6.1978-1.53,1.79-1.53,1.7915-5.5625v-.97q0-4.1813-1.941-5.8241-1.9432-1.6418-6.5715-1.6426H305.4413Z"/><path class="cls-7" d="M351.8838,188.5889h-9.7061v-25.536a16.8012,16.8012,0,0,1,1.0452-6.3093,9.7779,9.7779,0,0,1,3.061-4.1436,12.8737,12.8737,0,0,1,4.9284-2.2774,28.1885,28.1885,0,0,1,6.6451-.7094H362.71q2.0163,0,3.9579.0747l-1.5685,8.0635q-1.4949-.0729-3.2852-.1115-1.7921-.0374-2.9862-.0374a12.2665,12.2665,0,0,0-3.7337.4479,4.6405,4.6405,0,0,0-2.0905,1.3068,4.0916,4.0916,0,0,0-.9337,2.1653,22.25,22.25,0,0,0-.1862,3.0983Z"/><path class="cls-7" d="M403.5512,181.57q0,3.9588-1.7927,5.4884-1.7921,1.5313-6.1967,1.53h-12.17q-7.99,0-11.3125-2.9869-3.3225-2.9853-3.322-8.5867v-1.6426q0-6.1967,3.6578-8.9972t11.424-2.8a27.6165,27.6165,0,0,1,6.4589.6347,13.1185,13.1185,0,0,1,3.8452,1.4557v-1.3436a11.7053,11.7053,0,0,0-.4105-3.36,4.2578,4.2578,0,0,0-1.381-2.1279,5.77,5.77,0,0,0-2.6505-1.0832,24.86,24.86,0,0,0-4.2189-.2984h-3.1357q-1.7191,0-3.4727.0374t-3.4714.0747q-1.7192.0384-3.1369.0374l1.5684-7.84q2.0893-.0739,5.2262-.1122t6.8694-.0373q9.11,0,13.3662,3.21t4.2557,10.08Zm-9.4083,0v-6.0478a8.6022,8.6022,0,0,0-.261-2.2773,2.7876,2.7876,0,0,0-1.0832-1.53,5.5819,5.5819,0,0,0-2.3147-.859,23.96,23.96,0,0,0-3.9568-.261h-1.12q-4.257,0-5.7494,1.0453-1.4949,1.0464-1.4937,3.8078v1.4189a4.3615,4.3615,0,0,0,1.3821,3.5462q1.3793,1.1586,5.1147,1.1574Z"/><path class="cls-7" d="M429.535,157.453a24.1971,24.1971,0,0,0-4.4811.3358,5.14,5.14,0,0,0-2.7252,1.3442,5.5519,5.5519,0,0,0-1.381,2.9494,27.842,27.842,0,0,0-.3737,5.0773v4.0321a25.3635,25.3635,0,0,0,.4116,5.0773,5.7493,5.7493,0,0,0,1.4178,2.9494,5.1721,5.1721,0,0,0,2.7632,1.3436,23.7264,23.7264,0,0,0,4.3684.3364q2.5359,0,5.5252-.0374,2.9844-.0374,5.3756-.1121l-1.5684,7.84q-2.39.0738-5.0767.1121-2.6891.0365-4.48.0374a34.9851,34.9851,0,0,1-8.7736-.9338,12.9483,12.9483,0,0,1-5.7494-3.0236,11.592,11.592,0,0,1-3.1357-5.4136,30.6272,30.6272,0,0,1-.9337-8.1756V167.16a29.6609,29.6609,0,0,1,.9705-8.1388,11.8669,11.8669,0,0,1,3.1736-5.45,12.9746,12.9746,0,0,1,5.7494-3.0242,34.7192,34.7192,0,0,1,8.6989-.9331q4.1055,0,10.9755.2236l-1.5684,7.84q-3.1357-.15-5.4872-.1869T429.535,157.453Z"/><path class="cls-7" d="M456.863,164.4719l14.7092-14.7092h11.7231L465.4491,167.085l19.5629,21.5039H472.9165l-16.0535-17.92v17.92h-9.7061V133.1118h9.7061Z"/><path class="cls-7" d="M488.894,188.5889V162.1572a16.8689,16.8689,0,0,1,1.0452-6.272,9.54,9.54,0,0,1,3.21-4.2189,14.4451,14.4451,0,0,1,5.5251-2.3521,37.3483,37.3483,0,0,1,7.9894-.7463q9.2577,0,13.4765,3.0984t4.219,10.4909v26.4317h-9.7062v-25.237a17.393,17.393,0,0,0-.2242-2.9868,4.1457,4.1457,0,0,0-1.0084-2.1278,4.7484,4.7484,0,0,0-2.3895-1.2695,23.4424,23.4424,0,0,0-8.7356,0,4.987,4.987,0,0,0-2.4262,1.2695,4.0035,4.0035,0,0,0-1.0453,2.1278,17.393,17.393,0,0,0-.2242,2.9868v25.237Z"/><path class="cls-7" d="M541.2353,172.4607a26.5415,26.5415,0,0,0,.2978,4.4057,4.5242,4.5242,0,0,0,3.8084,4.0321,20.2244,20.2244,0,0,0,4.33.3731h5.9737q3.36,0,8.2883-.15l-1.4937,7.4668q-2.091.0738-3.7337.1121-1.6425.0365-3.1736.0374h-6.3082a26.9861,26.9861,0,0,1-8.7368-1.1948,11.7912,11.7912,0,0,1-8.1757-8.9225,31.7746,31.7746,0,0,1-.7842-7.4293V167.01a34.1978,34.1978,0,0,1,.821-7.9146,13.3636,13.3636,0,0,1,2.8747-5.7867,12.5861,12.5861,0,0,1,5.5264-3.5462,27.3421,27.3421,0,0,1,8.7723-1.1948,26.2519,26.2519,0,0,1,8.1769,1.0826,13.3617,13.3617,0,0,1,5.2261,3.0236,10.8509,10.8509,0,0,1,2.8,4.5921,19.4958,19.4958,0,0,1,.821,5.7867v1.2695a23.3864,23.3864,0,0,1-.299,4.1442,5.6674,5.6674,0,0,1-1.0073,2.5009,3.3824,3.3824,0,0,1-1.8294,1.1948,10.8893,10.8893,0,0,1-2.7632.2984Zm8.0629-16.5755a16.7541,16.7541,0,0,0-4.1062.4105,4.6163,4.6163,0,0,0-2.4642,1.4931,5.9991,5.9991,0,0,0-1.1947,2.9121,29.8783,29.8783,0,0,0-.2978,4.6667h16.0523V163.65a15.376,15.376,0,0,0-.3726-3.6583,5.033,5.033,0,0,0-1.2694-2.3895,5.3087,5.3087,0,0,0-2.4642-1.3068A15.64,15.64,0,0,0,549.2982,155.8852Z"/><path class="cls-7" d="M573.341,133.1118h9.7061v55.4771H573.341Z"/><path class="cls-7" d="M590.9606,133.1118h9.7061v55.4771h-9.7061Z"/><path class="cls-7" d="M295.51,209.0439h22.9222q8.3625,0,12.1336,3.21,3.7692,3.2113,3.77,10.0057v.7462a13.2087,13.2087,0,0,1-1.68,6.9068,10.29,10.29,0,0,1-5.2629,4.2189,11.6273,11.6273,0,0,1,6.1966,4.1436,13.1343,13.1343,0,0,1,2.3148,8.1762v1.1947q0,7.6906-4.63,11.1251t-12.9913,3.4347H295.51Zm9.9309,8.1389v13.44h11.2746q4.2551,0,5.9736-1.5679,1.7155-1.5687,1.7168-5.0773v-.9711q0-3.1356-1.6053-4.48-1.607-1.3436-5.4136-1.3436Zm0,36.8846h12.3946q4.4046,0,6.1978-1.53,1.79-1.53,1.7915-5.5625v-.9705q0-4.1812-1.941-5.8241-1.9432-1.6418-6.5715-1.6426H305.4413Z"/><path class="cls-7" d="M353.0037,209.0439v53.1624h-9.93V209.0439Z"/><path class="cls-7" d="M362.7087,209.0439H383.242A37.0433,37.0433,0,0,1,394.5166,210.5a16.16,16.16,0,0,1,7.13,4.3684,16.5091,16.5091,0,0,1,3.7337,7.3172,43.6011,43.6011,0,0,1,1.082,10.3041v6.1973a42.7524,42.7524,0,0,1-1.082,10.1919,17.0628,17.0628,0,0,1-3.7337,7.3546,16.1091,16.1091,0,0,1-7.0936,4.48,35.5078,35.5078,0,0,1-11.163,1.4932H362.7087Zm9.93,44.5756h10.1546a26.4024,26.4024,0,0,0,6.2346-.6347,8.1837,8.1837,0,0,0,4.1442-2.3147,10.1392,10.1392,0,0,0,2.2767-4.6662,34.2043,34.2043,0,0,0,.7095-7.691v-5.45a34.2116,34.2116,0,0,0-.7095-7.691,10.1443,10.1443,0,0,0-2.2767-4.6661,7.9684,7.9684,0,0,0-4.1442-2.2774,28.03,28.03,0,0,0-6.2346-.5973H372.639Z"/></svg>