<?xml version="1.0" encoding="UTF-8"?>
<svg width="106px" height="86px" viewBox="0 0 106 86" version="1.1" xmlns="http://www.w3.org/2000/svg" xmlns:xlink="http://www.w3.org/1999/xlink">
    <g id="Page-1" stroke="none" stroke-width="1" fill="none" fill-rule="evenodd">
        <g id="Artboard" transform="translate(-736.000000, -1697.000000)" fill="#21989D">
            <g id="co2" transform="translate(736.000000, 1697.000000)">
                <g id="Group">
                    <path d="M94.7375,24.74 C93.6333333,15.5 85.9041667,8.46 76.4083333,8.46 C73.5375,8.46 70.8875,9.12 68.6791667,10.22 C65.1458333,4.28 58.9625,0.54 51.4541667,0.54 C44.6083333,0.54 38.6458333,4.06 35.1125,9.12 C42.4,9.56 49.2458333,13.52 53.4416667,19.46 C56.0916667,18.58 58.7416667,18.14 61.3916667,18.14 C72.6541667,18.14 82.15,26.28 84.1375,37.28 C91.8666667,41.02 96.9458333,48.94 96.9458333,57.74 C102.466667,54.66 106,48.72 106,41.9 C106,34.2 101.3625,27.6 94.7375,24.74 Z" id="Path"></path>
                    <path d="M55.2083333,40.14 C53,40.14 51.0125,41.02 49.4666667,42.56 C47.9208333,44.1 47.0375,46.08 47.0375,48.5 C47.0375,50.7 47.9208333,52.68 49.4666667,54.44 C51.0125,55.98 53,56.86 55.2083333,56.86 C57.4166667,56.86 59.4041667,55.98 60.95,54.44 C62.4958333,52.9 63.3791667,50.92 63.3791667,48.5 C63.3791667,46.3 62.4958333,44.32 60.95,42.56 C59.4041667,40.8 57.6375,40.14 55.2083333,40.14 Z" id="Path"></path>
                    <path d="M82.15,38.6 C81.0458333,28.26 72.2125,20.12 61.6125,20.12 C58.5208333,20.12 55.4291667,20.78 52.7791667,22.1 C48.8041667,15.5 41.7375,11.1 33.5666667,11.1 C21.2,11.1 11.0416667,21.22 11.0416667,33.32 C11.0416667,33.98 11.0416667,34.64 11.0416667,35.3 C4.41666667,39.7 0,47.18 0,55.76 C0,68.96 10.8208333,79.74 24.0708333,79.74 C26.9416667,79.74 29.8125,79.3 32.4625,78.2 C36.2166667,82.6 41.9583333,85.46 48.3625,85.46 C55.4291667,85.46 61.8333333,81.94 65.5875,76.44 C68.2375,77.54 71.1083333,78.2 73.9791667,78.2 C85.4625,78.2 94.7375,68.96 94.7375,57.52 C94.7375,49.16 89.4375,41.68 82.15,38.6 Z M25.8375,54 C27.3833333,55.54 29.15,56.42 31.3583333,56.42 C32.6833333,56.42 33.7875,56.2 34.8916667,55.76 C35.775,55.32 36.8791667,54.66 37.9833333,53.56 L40.4125,56.2 C37.9833333,58.84 35.1125,60.16 31.5791667,60.16 C28.0458333,60.16 25.175,59.06 22.9666667,56.86 C20.7583333,54.66 19.4333333,51.8 19.4333333,48.5 C19.4333333,45.2 20.5375,42.34 22.9666667,39.92 C25.3958333,37.72 28.2666667,36.62 31.8,36.62 C35.3333333,36.62 38.425,37.94 40.6333333,40.58 L38.2041667,43.22 C37.1,42.12 35.9958333,41.46 35.1125,41.02 C34.2291667,40.58 32.9041667,40.36 31.5791667,40.36 C29.3708333,40.36 27.3833333,41.02 25.8375,42.56 C24.2916667,44.1 23.4083333,45.86 23.4083333,48.28 C23.6291667,50.7 24.2916667,52.46 25.8375,54 Z M63.8208333,56.86 C61.6125,59.06 58.7416667,60.16 55.2083333,60.16 C51.8958333,60.16 49.025,59.06 46.5958333,56.86 C44.1666667,54.66 43.0625,51.8 43.0625,48.5 C43.0625,45.2 44.1666667,42.34 46.5958333,40.14 C48.8041667,37.94 51.675,36.84 55.2083333,36.84 C58.5208333,36.84 61.3916667,37.94 63.8208333,40.14 C66.25,42.34 67.3541667,45.2 67.3541667,48.5 C67.3541667,51.8 66.25,54.44 63.8208333,56.86 Z M75.9666667,70.72 L66.4708333,70.72 L66.4708333,68.74 L70.6666667,64.56 C71.55,63.68 72.2125,62.8 72.6541667,62.36 C73.0958333,61.92 73.3166667,61.26 73.3166667,60.82 C73.3166667,60.38 73.0958333,59.72 72.6541667,59.5 C72.2125,59.06 71.7708333,58.84 71.1083333,58.84 C70.0041667,58.84 69.1208333,59.5 68.2375,60.6 L66.4708333,59.5 C67.1333333,58.62 67.7958333,57.96 68.4583333,57.52 C69.1208333,57.08 70.225,56.86 71.3291667,56.86 C72.4333333,56.86 73.5375,57.3 74.4208333,57.96 C75.3041667,58.62 75.7458333,59.72 75.7458333,60.82 C75.7458333,61.48 75.525,62.14 75.3041667,62.8 C74.8625,63.46 74.2,64.34 73.3166667,65.22 L70.0041667,68.52 L76.1875,68.52 L76.1875,70.72 L75.9666667,70.72 Z" id="Shape" fill-rule="nonzero"></path>
                </g>
            </g>
        </g>
    </g>
</svg>