<?xml version="1.0" encoding="UTF-8"?>
<svg width="76px" height="63px" viewBox="0 0 76 63" version="1.1" xmlns="http://www.w3.org/2000/svg" xmlns:xlink="http://www.w3.org/1999/xlink">
    <g id="Page-1" stroke="none" stroke-width="1" fill="none" fill-rule="evenodd">
        <g id="Artboard" transform="translate(-724.000000, -1173.000000)" fill="#1F52A3">
            <g id="Motivation" transform="translate(165.000000, 720.000000)">
                <g id="data" transform="translate(559.000000, 453.000000)">
                    <g id="Group">
                        <path d="M73.5458333,0.1575 L29.0541667,0.1575 C27.8666667,0.1575 26.9958333,1.1025 26.9958333,2.205 L26.9958333,16.77375 L31.1125,16.77375 L31.1125,4.2525 L71.4875,4.2525 L71.4875,36.77625 L31.1125,36.77625 L31.1125,29.84625 L26.9958333,29.84625 L26.9958333,38.82375 C26.9958333,39.92625 27.8666667,40.87125 29.0541667,40.87125 L41.8791667,40.87125 L34.9125,60.08625 C34.5166667,61.11 35.0708333,62.29125 36.1791667,62.685 C37.2875,63.07875 38.3958333,62.5275 38.7916667,61.425 L46.2333333,40.87125 L56.3666667,40.87125 L63.8083333,61.425 C64.125,62.29125 64.9166667,62.76375 65.7083333,62.76375 C65.9458333,62.76375 66.1833333,62.685 66.4208333,62.60625 C67.45,62.2125 68.0041667,61.03125 67.6875,60.0075 L60.7208333,40.7925 L73.5458333,40.7925 C74.6541667,40.7925 75.6041667,39.8475 75.6041667,38.745 L75.6041667,2.205 C75.6041667,1.1025 74.6541667,0.1575 73.5458333,0.1575 Z" id="Path"></path>
                        <path d="M20.1875,25.9875 L32.0625,25.9875 C33.5666667,25.9875 34.7541667,24.80625 34.7541667,23.31 C34.7541667,21.81375 33.5666667,20.6325 32.0625,20.6325 L11.1625,20.6325 C4.5125,20.6325 1.26666667,32.20875 0.475,35.7525 C0.158333333,37.24875 1.02916667,38.66625 2.53333333,38.98125 C2.77083333,39.06 2.92916667,39.06 3.16666667,39.06 C4.43333333,39.06 5.54166667,38.19375 5.85833333,36.93375 C6.4125,34.65 7.28333333,32.05125 8.3125,29.925 L8.3125,36.3825 L6.01666667,59.14125 C5.85833333,60.87375 7.125,62.44875 8.86666667,62.60625 C8.94583333,62.60625 9.10416667,62.60625 9.18333333,62.60625 C10.8458333,62.60625 12.1916667,61.34625 12.35,59.77125 L14.1708333,40.95 L15.9916667,59.77125 C16.15,61.425 17.575,62.60625 19.1583333,62.60625 C19.2375,62.60625 19.3958333,62.60625 19.475,62.60625 C21.2166667,62.44875 22.4833333,60.87375 22.325,59.14125 L20.1083333,36.30375 L20.1083333,25.9875 L20.1875,25.9875 Z" id="Path"></path>
                        <ellipse id="Oval" cx="14.1708333" cy="12.83625" rx="6.25416667" ry="6.22125"></ellipse>
                        <path d="M47.7375,13.62375 C47.7375,13.62375 47.6583333,13.62375 47.6583333,13.545 C47.025,13.23 46.2333333,13.3875 45.9166667,14.0175 L41.1666667,22.365 C41.0875,22.5225 41.0875,22.8375 41.2458333,22.91625 C41.325,22.995 41.4041667,22.995 41.5625,22.995 C41.7208333,22.995 41.8,22.91625 41.9583333,22.8375 L47.3416667,16.5375 L49.4,17.955 C49.9541667,18.34875 50.825,18.27 51.2208333,17.71875 L54.3083333,13.93875 L55.1,14.9625 C55.3375,15.19875 55.6541667,15.35625 55.9708333,15.19875 C56.2875,15.12 56.525,14.805 56.525,14.49 L56.525,8.9775 C56.525,8.74125 56.3666667,8.505 56.2083333,8.3475 C55.9708333,8.19 55.7333333,8.19 55.4958333,8.26875 L50.1125,10.2375 C49.7958333,10.31625 49.6375,10.63125 49.6375,10.94625 C49.6375,11.26125 49.875,11.57625 50.1916667,11.655 L51.4583333,12.04875 L49.7166667,14.9625 L47.7375,13.62375 Z" id="Path"></path>
                        <path d="M39.9791667,26.9325 L39.9791667,30.0825 L36.9708333,30.0825 C36.2583333,30.0825 35.625,30.7125 35.625,31.42125 C35.625,32.13 36.2583333,32.76 36.9708333,32.76 L65.6291667,32.76 C66.3416667,32.76 66.975,32.13 66.975,31.42125 C66.975,30.7125 66.3416667,30.0825 65.6291667,30.0825 L62.6208333,30.0825 L62.6208333,18.34875 C62.6208333,18.19125 62.5416667,18.1125 62.4625,18.03375 L59.9291667,15.9075 C59.7708333,15.75 59.5333333,15.75 59.375,15.9075 L56.8416667,18.03375 C56.7625,18.1125 56.6833333,18.19125 56.6833333,18.34875 L56.6833333,30.0825 L54.3083333,30.0825 L54.3083333,22.68 C54.3083333,22.5225 54.2291667,22.44375 54.15,22.365 L51.6166667,20.23875 C51.4583333,20.08125 51.2208333,20.08125 51.0625,20.23875 L48.5291667,22.365 C48.45,22.44375 48.3708333,22.5225 48.3708333,22.68 L48.3708333,30.0825 L45.9958333,30.0825 L45.9958333,26.9325 C45.9958333,26.775 45.9166667,26.69625 45.8375,26.6175 L43.3041667,24.49125 C43.1458333,24.33375 42.9083333,24.33375 42.75,24.49125 L40.2166667,26.6175 C39.9791667,26.69625 39.9791667,26.775 39.9791667,26.9325 Z" id="Path"></path>
                    </g>
                </g>
            </g>
        </g>
    </g>
</svg>