<?xml version="1.0" encoding="UTF-8"?>
<svg width="79px" height="80px" viewBox="0 0 79 80" version="1.1" xmlns="http://www.w3.org/2000/svg" xmlns:xlink="http://www.w3.org/1999/xlink">
    <g id="Page-1" stroke="none" stroke-width="1" fill="none" fill-rule="evenodd">
        <g id="Artboard" transform="translate(-166.000000, -1172.000000)" fill="#1F52A3">
            <g id="Motivation" transform="translate(165.000000, 720.000000)">
                <g id="engagement" transform="translate(1.000000, 452.000000)">
                    <g id="Group">
                        <ellipse id="Oval" cx="39.5" cy="6.02083333" rx="5.53" ry="5.578125"></ellipse>
                        <polygon id="Path" points="39.5 18.4166667 41.7822222 13.4583333 37.2177778 13.4583333"></polygon>
                        <path d="M33.3555556,16.9114583 L33.3555556,50.46875 L38.3588889,50.46875 L38.3588889,33.734375 L40.6411111,33.734375 L40.6411111,50.46875 L45.6444444,50.46875 L45.6444444,16.9114583 L55.1244444,7.26041667 C55.9144444,6.375 55.9144444,5.046875 55.1244444,4.25 C54.2466667,3.453125 52.93,3.453125 52.14,4.25 L43.5377778,13.1041667 L40.7288889,19.0364583 C41.3433333,19.390625 41.7822222,20.0989583 41.7822222,20.8958333 C41.7822222,22.1354167 40.8166667,23.109375 39.5877778,23.109375 C38.3588889,23.109375 37.3933333,22.1354167 37.3933333,20.8958333 C37.3933333,20.0989583 37.8322222,19.390625 38.4466667,19.0364583 L35.6377778,13.1041667 L27.0355556,4.25 C26.2455556,3.36458333 24.8411111,3.36458333 24.0511111,4.25 C23.2611111,5.046875 23.1733333,6.46354167 24.0511111,7.26041667 L33.3555556,16.9114583 Z" id="Path"></path>
                        <ellipse id="Oval" cx="14.3077778" cy="16.5572917" rx="5.53" ry="5.578125"></ellipse>
                        <path d="M21.2422222,25.0572917 C20.8911111,24.4375 20.1888889,23.9947917 19.3988889,23.9947917 L9.30444444,23.9947917 C8.60222222,23.9947917 7.9,24.4375 7.46111111,25.0572917 L0.526666667,36.5677083 C-0.0877777778,37.6302083 0.263333333,38.8697917 1.22888889,39.4895833 C1.58,39.6666667 1.93111111,39.84375 2.37,39.84375 C3.07222222,39.84375 3.77444444,39.4895833 4.21333333,38.78125 L8.25111111,32.0520833 L8.25111111,60.9166667 L13.1666667,60.9166667 L13.1666667,44.2708333 L15.4488889,44.2708333 L15.4488889,60.9166667 L20.4522222,60.9166667 L20.4522222,32.0520833 L24.49,38.78125 C25.1044444,39.7552083 26.4211111,40.109375 27.3866667,39.4895833 C28.3522222,38.8697917 28.7033333,37.5416667 28.0888889,36.5677083 L21.2422222,25.0572917 Z" id="Path"></path>
                        <rect id="Rectangle" x="5.00333333" y="63.8385417" width="18.6966667" height="15.71875"></rect>
                        <ellipse id="Oval" cx="64.6922222" cy="23.7291667" rx="5.53" ry="5.578125"></ellipse>
                        <path d="M78.3855556,43.7395833 L71.4511111,32.2291667 C71.1,31.609375 70.3977778,31.1666667 69.6077778,31.1666667 L59.6011111,31.1666667 C58.8988889,31.1666667 58.1966667,31.609375 57.7577778,32.2291667 L50.8233333,43.7395833 C50.2088889,44.8020833 50.56,46.0416667 51.5255556,46.6614583 C51.8766667,46.8385417 52.2277778,47.015625 52.6666667,47.015625 C53.3688889,47.015625 54.0711111,46.6614583 54.51,45.953125 L58.5477778,39.2239583 L58.5477778,68.0885417 L63.5511111,68.0885417 L63.5511111,51.4427083 L65.8333333,51.4427083 L65.8333333,68.0885417 L70.8366667,68.0885417 L70.8366667,39.2239583 L74.8744444,45.953125 C75.4888889,46.9270833 76.8055556,47.28125 77.7711111,46.6614583 C78.7366667,46.0416667 79,44.7135417 78.3855556,43.7395833 Z" id="Path"></path>
                        <rect id="Rectangle" x="55.3" y="71.0104167" width="18.6966667" height="8.546875"></rect>
                        <rect id="Rectangle" x="30.1955556" y="53.3020833" width="18.6966667" height="26.2552083"></rect>
                    </g>
                </g>
            </g>
        </g>
    </g>
</svg>