<?xml version="1.0" encoding="UTF-8"?>
<svg width="106px" height="101px" viewBox="0 0 106 101" version="1.1" xmlns="http://www.w3.org/2000/svg" xmlns:xlink="http://www.w3.org/1999/xlink">
    <g id="Page-1" stroke="none" stroke-width="1" fill="none" fill-rule="evenodd">
        <g id="Artboard" transform="translate(-742.000000, -2389.000000)" fill="#80CDDD">
            <g id="environment" transform="translate(742.000000, 2389.000000)">
                <g id="Group">
                    <path d="M40.87625,76.9372209 C40.34625,76.61886 36.7555,75.1862359 33.5755,73.9393223 C29.77275,72.427108 25.8375,70.8750985 24.60525,70.2383767 C23.1345,69.4690045 19.3715,66.8159968 16.46975,64.7333859 C15.3386671,63.9246355 13.7811639,64.095984 12.8525,65.131337 C12.7655908,65.2363447 12.6859074,65.3471417 12.614,65.462963 C12.2696744,65.9685647 12.1105198,66.5777875 12.1635,67.1874179 C12.2227238,67.9726668 12.6190585,68.6936533 13.25,69.1639086 C20.4315,74.88114 23.532,77.1229314 24.02225,77.2953769 C24.5125,77.4678224 28.42125,78.6218807 30.8725,79.5239033 L32.82025,80.2269504 C33.0492584,80.3026155 33.219109,80.4968863 33.2636983,80.734155 C33.3082875,80.9714237 33.2205713,81.2142083 33.0346879,81.3680199 C32.8488044,81.5218315 32.5941182,81.5623722 32.36975,81.4738639 C29.1765,80.3198056 24.41975,78.6484108 23.81025,78.5953507 C23.479,78.5953507 22.8695,78.5157604 12.4285,70.1985816 C10.8664078,68.995283 10.4209825,66.8277204 11.38175,65.1048069 L5.02175,52.23772 C4.57916556,51.4073023 3.70927668,50.8950222 2.76925,50.9112162 C2.49984589,50.9118968 2.23199716,50.9521197 1.97425,51.0306015 C1.31525407,51.2496731 0.774341312,51.7289002 0.477,52.3571053 C0.185009218,52.9974148 0.185009218,53.7330816 0.477,54.3733911 C8.17525,72.0689519 13.303,83.5564749 13.8595,84.3125821 C16.8734694,85.6616765 19.9716335,86.8137292 23.1345,87.761492 C25.9665928,88.6240248 28.748917,89.6425635 31.46875,90.8124507 C33.53575,91.9797741 36.6495,98.0418965 37.69625,100.097977 L50.04525,92.9083268 C46.20275,85.4135802 41.80375,77.5341476 40.87625,76.9372209 Z" id="Path"></path>
                    <path d="M103.615,50.8979511 C102.41086,50.5169761 101.110467,51.0830061 100.5675,52.224455 L94.22075,65.0915419 C94.5938991,65.7810616 94.7552359,66.5655869 94.6845,67.3465984 C94.6024024,68.4634648 94.0540444,69.494007 93.174,70.1853165 C82.733,78.4494353 82.15,78.4494353 81.779,78.5290255 C81.18275,78.5290255 76.479,80.2534804 73.23275,81.4075387 C73.0677943,81.4710729 72.8840955,81.464535 72.7240627,81.3894345 C72.5640298,81.314334 72.4414961,81.1771624 72.38475,81.0095876 C72.259162,80.66901 72.4304179,80.290637 72.769,80.1606252 L74.71675,79.4575781 C77.18125,78.5820856 80.94425,77.2688469 81.65975,77.2025217 C82.0705,77.0433412 85.171,74.8148148 92.3525,69.0975834 C93.4869601,68.2360508 93.7385642,66.6309864 92.92225,65.462963 C92.8458124,65.3469255 92.761708,65.2361363 92.6705,65.131337 C91.7619989,64.0678909 90.1846649,63.8937228 89.0665,64.7333859 C86.16475,66.8159968 82.4415,69.4690045 80.91775,70.2383767 C79.69875,70.8750985 75.7635,72.427108 71.96075,73.9393223 C68.78075,75.1862359 65.17675,76.5923299 64.66,76.9372209 C63.7325,77.5341476 59.36,85.4135802 55.50425,92.8552666 L67.8665,100.044917 C68.9,97.9225112 72.027,91.8603888 74.08075,90.7593906 C76.8020462,89.6008189 79.5842333,88.5911867 82.415,87.7349619 C86.11175,86.5013134 91.17325,84.7901235 91.69,84.2595219 C92.20675,83.7289204 97.361,72.0556869 105.05925,54.346861 C105.344397,53.705079 105.344397,52.9723573 105.05925,52.3305753 C104.799025,51.6719193 104.27528,51.1523901 103.615,50.8979511 Z" id="Path"></path>
                    <path d="M87.35725,34.7941949 C87.3995103,25.5923515 83.7823705,16.7519229 77.3041567,10.2240486 C70.8259429,3.69617439 62.0192421,0.0175242253 52.82775,-1.77635684e-15 L52.72175,-1.77635684e-15 C33.6404436,0.0217940714 18.1651343,15.4790922 18.0995,34.5819543 C18.0995,35.0197006 18.0995,35.4441818 18.0995,35.9880483 C18.6400551,49.247325 26.6532795,61.0493905 38.7695,66.4313107 L38.8755,66.4313107 C43.2036287,68.3291816 47.8774128,69.309261 52.6025,69.309824 L52.7085,69.309824 C71.7714254,69.2955524 87.2479913,53.8784476 87.35725,34.7941949 Z M82.6535,20.0567376 C82.3741804,20.6288903 82.1565357,21.229204 82.00425,21.8475177 C81.8034381,22.657451 81.6704769,23.482746 81.60675,24.3148148 C81.2755,28.4933018 84.70725,27.6443394 80.41425,31.9289467 C76.12125,36.213554 76.43925,37.8186236 73.86875,37.8053586 C71.29825,37.7920935 73.4315,36.1870239 70.34425,34.3564486 C67.257,32.5258734 63.71925,31.4381403 62.752,33.0299448 C61.78475,34.6217494 57.452,33.9717625 57.17375,35.8023378 C56.8955,37.6329131 53.424,37.1288416 52.66875,35.3513265 C51.9135,33.5738114 53.64925,32.3534279 53.8745,30.8544786 C54.09975,29.3555293 56.445,32.1809824 57.505,31.9422117 C58.565,31.703441 60.4995,30.9738639 60.30075,29.1698188 C60.102,27.3657736 60.738,25.1903073 63.0965,24.7790911 C65.455,24.367875 67.8135,26.1851852 67.9725,22.975046 C68.1315,19.7649068 68.14475,17.6690307 66.9655,16.2098765 C65.78625,14.7507224 59.0155,12.548726 58.41925,10.9038613 C57.823,9.25899659 55.98125,8.10493827 55.98125,6.81822958 C55.9296337,5.4905583 55.9694781,4.16090406 56.1005,2.83871815 C56.1469764,2.39215605 56.2222163,1.94906569 56.32575,1.51221434 C67.7034487,2.74900875 77.64757,9.75336683 82.6535,20.0567376 Z M37.74925,15.1884686 C36.3296985,15.2703794 35.010831,14.4537685 34.45,13.1456527 C33.496,11.3150775 36.3845,10.797741 37.789,9.2987917 C39.1935,7.7998424 40.6775,8.76819018 42.81075,10.3865248 C44.944,12.0048595 41.022,14.2599159 42.81075,16.2762017 C45.262,19.0751248 42.5855,18.3190176 41.19425,19.486341 C39.803,20.6536643 38.83575,17.9741266 38.99475,16.2629367 C39.15375,14.5517468 38.6105,15.0823483 37.74925,15.1884686 Z M39.326,65.2109272 C27.6411393,60.0757193 19.9196817,48.7019874 19.451,35.9349882 C19.875,35.9349882 20.33875,36.0278434 20.776,36.0411085 C22.525,36.0411085 24.28725,35.8951931 24.8305,35.0860257 C25.917,33.4809561 26.023,32.3003677 28.5935,31.5707906 C31.164,30.8412136 31.81325,26.4239559 33.3105,28.572892 C34.80775,30.7218282 33.69475,30.8146835 37.69625,29.4085894 C41.69775,28.0024954 38.54425,32.6983189 40.53175,36.2666141 C42.51925,39.8349094 49.237,36.8635408 51.2245,39.4502233 C53.212,42.0369057 50.085,42.3022065 46.01725,48.0061728 C41.9495,53.7101392 46.20275,49.0010507 51.039,54.6386919 C54.378,58.6182033 46.41475,62.4517993 41.16775,64.4813501 C40.50525,64.7466509 39.84275,64.9721566 39.326,65.1578671 L39.326,65.2109272 Z" id="Shape" fill-rule="nonzero"></path>
                </g>
            </g>
        </g>
    </g>
</svg>