<?xml version="1.0" encoding="UTF-8"?>
<svg width="111px" height="68px" viewBox="0 0 111 68" version="1.1" xmlns="http://www.w3.org/2000/svg" xmlns:xlink="http://www.w3.org/1999/xlink">
    <g id="Page-1" stroke="none" stroke-width="1" fill="none" fill-rule="evenodd">
        <g id="Artboard" transform="translate(-742.000000, -2221.000000)" fill="#80CDDD">
            <g id="faster" transform="translate(797.500000, 2255.000000) scale(-1, 1) translate(-797.500000, -2255.000000) translate(742.000000, 2221.000000)">
                <path d="M32.52,58.746 C32.52,58.271 32.47,57.808 32.398,57.353 C31.728,53.187 28.118,49.994 23.768,49.994 C19.417,49.994 15.809,53.187 15.138,57.353 C15.066,57.806 15.017,58.271 15.017,58.746 C15.017,63.572 18.942,67.498 23.768,67.498 C28.593,67.498 32.52,63.572 32.52,58.746 Z" id="Path"></path>
                <path d="M69.521,58.746 C69.521,58.271 69.474,57.808 69.4,57.353 C68.73,53.187 65.121,49.994 60.769,49.994 C56.418,49.994 52.81,53.187 52.14,57.353 C52.066,57.806 52.017,58.271 52.017,58.746 C52.017,63.572 55.943,67.498 60.769,67.498 C65.595,67.498 69.521,63.572 69.521,58.746 Z" id="Path"></path>
                <path d="M108.069,30.57 L82.011,30.57 L58.519,30.57 C57.138,30.57 56.019,29.45 56.019,28.07 C56.019,26.69 57.138,25.57 58.519,25.57 L82.011,25.57 L82.011,20.151 L96.07,20.151 C97.451,20.151 98.57,19.032 98.57,17.651 C98.57,16.27 97.451,15.151 96.07,15.151 L82.011,15.151 L49.519,15.151 C48.138,15.151 47.019,14.032 47.019,12.651 C47.019,11.27 48.138,10.151 49.519,10.151 L82.011,10.151 L82.011,0.135 L20.346,0.135 L20.346,17.836 L6.297,17.836 C3.177,17.836 0.648,20.365 0.648,23.484 L0.648,52.357 C0.648,55.476 3.177,58.005 6.297,58.005 L11.095,58.005 C11.791,51.626 17.208,46.646 23.767,46.646 C30.327,46.646 35.743,51.626 36.439,58.005 L48.099,58.005 C48.795,51.626 54.211,46.646 60.771,46.646 C67.331,46.646 72.747,51.626 73.443,58.005 L82.01,58.005 L82.01,35.57 L108.069,35.57 C109.45,35.57 110.569,34.451 110.569,33.07 C110.569,31.689 109.45,30.57 108.069,30.57 Z M19.013,34.149 L6.014,34.149 L6.014,22.649 L19.013,22.649 L19.013,34.149 Z" id="Shape" fill-rule="nonzero"></path>
            </g>
        </g>
    </g>
</svg>