<?xml version="1.0" encoding="UTF-8"?>
<svg width="90px" height="90px" viewBox="0 0 90 90" version="1.1" xmlns="http://www.w3.org/2000/svg" xmlns:xlink="http://www.w3.org/1999/xlink">
    <g id="Page-1" stroke="none" stroke-width="1" fill="none" fill-rule="evenodd">
        <g id="Artboard" transform="translate(-166.000000, -2381.000000)" fill="#80CDDD" fill-rule="nonzero">
            <g id="happy" transform="translate(166.000000, 2381.000000)">
                <path d="M31.4064,38.4381 C34.7724,38.4381 37.5003,35.7102 37.5003,32.3442 C37.5003,28.9782 34.7724,26.2503 31.4064,26.2503 C28.0413,26.2503 25.3125,28.9782 25.3125,32.3442 C25.3125,35.7102 28.0422,38.4381 31.4064,38.4381 Z M58.5945,38.4381 C61.9605,38.4381 64.6884,35.7102 64.6884,32.3442 C64.6884,28.9782 61.9605,26.2503 58.5945,26.2503 C55.2294,26.2503 52.5006,28.9782 52.5006,32.3442 C52.5006,35.7102 55.2294,38.4381 58.5945,38.4381 Z M45,0 C20.1474,0 0,20.1474 0,45 C0,69.8517 20.1474,90 45,90 C69.8517,90 90,69.8517 90,45 C90,20.1474 69.8517,0 45,0 Z M45,82.503 C24.2901,82.503 7.4997,65.7126 7.4997,45.0018 C7.4997,24.291 24.2901,7.4997 45,7.4997 C65.7117,7.4997 82.5021,24.2901 82.5021,45.0009 C82.5021,65.7117 65.7126,82.503 45,82.503 Z M64.2195,51.5646 C64.2195,51.5646 60.939,65.6262 45,65.6262 C29.0628,65.6262 25.7814,51.5646 25.7814,51.5646 L17.8128,51.5646 C17.8128,51.5646 22.734,73.1277 45,73.1277 C67.032,73.1277 72.1881,51.5646 72.1881,51.5646 L64.2195,51.5646 Z" id="Shape"></path>
            </g>
        </g>
    </g>
</svg>