<?xml version="1.0" encoding="UTF-8"?>
<svg width="90px" height="90px" viewBox="0 0 90 90" version="1.1" xmlns="http://www.w3.org/2000/svg" xmlns:xlink="http://www.w3.org/1999/xlink">
    <g id="Page-1" stroke="none" stroke-width="1" fill="none" fill-rule="evenodd">
        <g id="Artboard" transform="translate(-166.000000, -2209.000000)" fill="#80CDDD">
            <g id="health" transform="translate(166.000000, 2209.000000)">
                <path d="M44.992,89.271 C20.554,89.271 0.672,69.389 0.672,44.951 C0.672,20.513 20.554,0.631 44.992,0.631 C69.43,0.631 89.312,20.513 89.312,44.951 C89.312,69.389 69.431,89.271 44.992,89.271 Z M44.992,9.494 C25.442,9.494 9.536,25.4 9.536,44.95 C9.536,64.501 25.442,80.406 44.992,80.406 C64.543,80.406 80.448,64.501 80.448,44.95 C80.448,25.4 64.543,9.494 44.992,9.494 Z" id="Shape" fill-rule="nonzero"></path>
                <polygon id="Path" points="68.734 38.619 51.324 38.619 51.324 21.208 38.661 21.208 38.661 38.619 21.25 38.619 21.25 51.282 38.661 51.282 38.661 68.692 51.324 68.692 51.324 51.282 68.734 51.282"></polygon>
            </g>
        </g>
    </g>
</svg>