<?xml version="1.0" encoding="UTF-8"?>
<svg width="85px" height="76px" viewBox="0 0 85 76" version="1.1" xmlns="http://www.w3.org/2000/svg" xmlns:xlink="http://www.w3.org/1999/xlink">
    <g id="Page-1" stroke="none" stroke-width="1" fill="none" fill-rule="evenodd">
        <g id="Artboard" transform="translate(-175.000000, -1865.000000)" fill="#21989D">
            <g id="improve-environment" transform="translate(175.000000, 1865.000000)">
                <g id="Group">
                    <path d="M82.1666667,4.24186047 C76.234375,3.97674419 64.9895833,4.06511628 59.8541667,7.06976744 C54.71875,10.0744186 53.125,13.9627907 53.8333333,17.9395349 C56.3125,16.8790698 61.890625,14.5813953 67.5572917,14.4930233 C62.5989583,16.6139535 53.65625,21.4744186 45.421875,31.1069767 C41.7916667,22.1813953 34.9739583,16.4372093 30.7239583,13.5209302 C36.390625,14.8465116 41.6145833,18.6465116 43.828125,20.4139535 C45.5104167,16.7906977 44.9791667,12.6372093 40.7291667,8.48372093 C36.4791667,4.33023256 25.5885417,1.50232558 19.7447917,0.265116279 C17.9739583,-0.088372093 16.3802083,1.50232558 16.734375,3.26976744 C17.9739583,9.01395349 20.8958333,19.8837209 25.1458333,24.1255814 C29.5729167,28.455814 33.9114583,28.8976744 37.5416667,26.9534884 C40.2864583,30.8418605 42.5,35.8790698 42.9427083,42.0651163 C43.5625,42.0651163 44.09375,42.0651163 44.5364583,42.0651163 C45.6875,42.0651163 46.6614583,41.9767442 47.8125,41.8883721 C47.7239583,40.1209302 47.4583333,38.3534884 47.1041667,36.7627907 C50.734375,32.0790698 54.6302083,28.455814 58.2604167,25.7162791 C61.359375,28.544186 65.6979167,29.2511628 71.0104167,26.0697674 C76.1458333,23.0651163 81.6354167,13.1674419 84.2916667,7.95348837 C85.0885417,6.2744186 83.9375,4.33023256 82.1666667,4.24186047 Z" id="Path"></path>
                    <path d="M76.5,49.8418605 L66.7604167,50.9906977 C66.7604167,51.1674419 66.7604167,51.255814 66.7604167,51.4325581 C66.4947917,53.9953488 65.1666667,55.7627907 62.953125,56.4697674 C58.703125,57.7953488 48.7864583,60.0046512 48.34375,60.0930233 C48.1666667,60.0930233 48.078125,60.0930233 47.9010417,60.0930233 C47.9010417,60.0930233 47.9010417,60.0930233 47.9010417,60.0930233 L36.65625,59.827907 C35.5052083,59.827907 34.6197917,58.855814 34.6197917,57.7069767 C34.6197917,56.5581395 35.59375,55.5860465 36.7447917,55.6744186 L47.28125,55.9395349 C47.6354167,55.9395349 47.9010417,55.9395349 48.2552083,55.8511628 C50.6458333,55.3209302 57.90625,53.7302326 61.359375,52.6697674 C62.0677083,52.4046512 62.6875,52.227907 62.7760417,50.9906977 C62.953125,49.0465116 61.7135417,46.572093 60.5625,45.9534884 C59.1458333,45.1581395 54.8072917,45.5116279 50.9114583,45.7767442 C47.546875,46.0418605 45.6875,46.3069767 42.1458333,46.0418605 C40.109375,45.9534884 37.453125,45.2465116 35.328125,44.8046512 C29.1302083,43.4790698 24.96875,44.1860465 21.25,45.6 C19.8333333,46.1302326 18.328125,46.7488372 17.0885417,47.2790698 C14.2552083,48.427907 11.421875,49.3116279 8.41145833,49.8418605 L2.83333333,50.9023256 C1.50520833,51.1674419 0.53125,52.3162791 0.53125,53.6418605 L0.53125,69.5488372 C0.53125,71.3162791 2.21354167,72.7302326 3.984375,72.2883721 L9.65104167,71.1395349 C11.8645833,70.6976744 14.2552083,70.6976744 16.46875,71.1395349 L33.734375,75.1162791 C37.6302083,76.2651163 41.8802083,75.9116279 45.5989583,74.2325581 L79.8645833,57.8837209 C80.3072917,57.6186047 80.75,57.2651163 80.9270833,56.8232558 C82.6979167,52.5813953 79.6875,49.4883721 76.5,49.8418605 Z" id="Path"></path>
                </g>
            </g>
        </g>
    </g>
</svg>