<?xml version="1.0" encoding="UTF-8"?>
<svg width="96px" height="91px" viewBox="0 0 96 91" version="1.1" xmlns="http://www.w3.org/2000/svg" xmlns:xlink="http://www.w3.org/1999/xlink">
    <g id="Page-1" stroke="none" stroke-width="1" fill="none" fill-rule="evenodd">
        <g id="Artboard" transform="translate(-165.000000, -1691.000000)" fill="#21989D">
            <g id="pollution" transform="translate(165.000000, 1691.000000)">
                <g id="Group">
                    <ellipse id="Oval" cx="39.2568511" cy="4.69519101" rx="4.56817021" ry="4.57351685"></ellipse>
                    <path d="M90.0571915,19.3574382 C86.5909787,15.8851236 81.0321702,15.8002584 77.4485106,19.0783034 C77.1758298,17.9167753 76.788766,16.7797865 76.2862979,15.6796067 C77.1676596,15.3452584 77.9969362,14.8289101 78.7067234,14.1182921 C81.3773617,11.4435056 81.3814468,7.09697753 78.7026383,4.4191236 C76.0279149,1.74126966 71.6895319,1.74126966 69.0148085,4.4191236 C68.3285106,5.10520225 67.8219574,5.90170787 67.488,6.75035955 C60.708766,3.54082022 52.3690213,4.72382022 46.763234,10.3351461 C45.3324255,11.7666067 44.2028936,13.3810899 43.3450213,15.0978202 C39.9237447,13.3810899 35.6507234,13.9454944 32.7962553,16.8033034 C30.8405106,18.7603146 29.9652766,21.3829551 30.1521702,23.9411798 C32.7022979,23.8000787 35.5608511,23.7039663 38.6093617,23.7039663 C45.5826383,23.7039663 51.5673191,24.2264494 55.0611064,24.6160112 C55.0590638,24.6139663 55.0570213,24.6129438 55.0549787,24.6108989 C53.2718298,22.8256629 53.2697872,19.9300225 55.0549787,18.1447865 C56.8381277,16.3595506 59.730383,16.3595506 61.5135319,18.1447865 C63.2987234,19.9300225 63.2966809,22.8277079 61.5155745,24.6108989 C61.1019574,25.025 60.624,25.3337865 60.1184681,25.5556629 C63.2231489,26.8388652 65.4485106,29.8582247 66.3891064,32.6853596 L70.5334468,46.0592921 L70.7244255,46.0592921 C75.7613617,46.0592921 78.9140426,49.0612697 79.0141277,53.9057416 C81.2578723,53.3024831 83.3811064,52.1317528 85.1428085,50.3690112 C89.5414468,45.9652247 90.3145532,39.3089326 87.4733617,34.1004607 C88.4078298,33.6618202 89.2881702,33.0667416 90.0612766,32.2927303 C93.6255319,28.7232809 93.6275745,22.9299551 90.0571915,19.3574382 Z" id="Path"></path>
                    <ellipse id="Oval" cx="91.1652766" cy="55.7942472" rx="4.56714894" ry="4.57249438"></ellipse>
                    <path d="M75.8675745,60.7276742 C74.928,61.6673258 74.3264681,62.8124944 74.0466383,64.0179888 L74.0466383,73.471764 C74.0466383,74.1987416 73.9557447,74.9114045 73.7851915,75.5974831 C75.3365106,76.0514607 77.0747234,75.6874607 78.2982128,74.4625393 C78.9089362,73.8511011 79.2939574,73.1067416 79.4859574,72.3245506 C81.6224681,72.7120674 83.9060426,72.0822247 85.5584681,70.4278652 C88.2301277,67.7530787 88.2331915,63.4065506 85.5554043,60.7286966 C82.8806809,58.0487978 78.5422979,58.0487978 75.8675745,60.7276742 Z" id="Path"></path>
                    <path d="M43.6595745,39.4122022 C43.6595745,38.0001685 42.516766,36.8560225 41.106383,36.8560225 L36,36.8560225 C34.589617,36.8560225 33.4468085,38.0001685 33.4468085,39.4122022 C33.4468085,40.824236 34.589617,41.968382 36,41.968382 L41.106383,41.968382 C42.516766,41.968382 43.6595745,40.824236 43.6595745,39.4122022 Z" id="Path"></path>
                    <path d="M70.9828085,64.7797303 L70.9828085,58.0303933 C74.0466383,57.5549438 75.4488511,56.1030337 75.4488511,53.6286517 C75.4488511,50.8045843 73.5441702,49.1246629 70.7234043,49.1246629 L67.5227234,49.1246629 L62.5133617,33.4327865 C61.776,31.2181124 59.8498723,29.2999551 57.540766,28.9809438 C57.1996596,28.9328876 49.0866383,27.664 38.6093617,27.664 C28.1320851,27.664 20.0190638,28.6977191 19.6779574,28.7437303 C17.3688511,29.0647865 15.4427234,31.2395843 14.7053617,33.4542584 L9.68476596,49.1246629 L6.38297872,49.1246629 C3.56221277,49.1246629 0.895659574,50.8056067 0.895659574,53.6286517 C0.895659574,56.4516966 3.57855319,58.131618 5.62110638,58.131618 L5.62110638,64.7787079 L5.62110638,73.4697191 C5.62110638,75.9921573 7.2306383,78.1362809 9.72051064,78.5217528 C9.80119149,78.5340225 10.7274894,78.587191 10.7274894,78.6700112 L10.7274894,85.739382 C10.7274894,88.5634494 13.0131064,90.8517416 15.8338723,90.8517416 C18.6546383,90.8517416 20.9402553,88.5634494 20.9402553,85.739382 L20.9402553,79.8284719 C26.0466383,80.2579101 31.7269787,80.6270225 37.9608511,80.6270225 C44.004766,80.6270225 50.5572766,80.279382 54.642383,79.8683483 L54.642383,85.739382 C54.642383,88.5634494 56.928,90.8517416 59.748766,90.8517416 C62.5695319,90.8517416 64.8551489,88.5634494 64.8551489,85.739382 L64.8551489,78.7538539 C65.8764255,78.624 66.3799149,78.5381124 66.4861277,78.5217528 C68.976,78.1362809 70.9828085,75.9911348 70.9828085,73.4697191 L70.9828085,64.7797303 Z M12.7220426,60.950573 C14.5051915,59.1653371 17.3994894,59.1653371 19.181617,60.950573 C20.9657872,62.7368315 20.9657872,65.6334944 19.1826383,67.4177079 C17.3984681,69.2039663 14.5062128,69.2039663 12.7220426,67.4177079 C10.9388936,65.6324719 10.9368511,62.7368315 12.7220426,60.950573 Z M15.3804255,50.3332247 L20.5194894,34.816191 C20.5194894,34.816191 28.434383,33.6475056 38.6093617,33.6475056 C48.7843404,33.6475056 56.699234,34.816191 56.699234,34.816191 L61.6677447,49.8178989 L61.6667234,49.8178989 L61.8209362,50.2851685 C56.7400851,49.6778202 48.4973617,48.9314157 38.6083404,48.9314157 C28.6110638,48.9303933 20.3346383,49.7176966 15.3804255,50.3332247 Z M52.608,70.4871685 C52.3925106,71.8828427 51.083234,72.8337416 49.6953191,72.6241348 C49.6401702,72.6159551 44.2294468,71.7918427 38.4520851,71.7918427 C32.6563404,71.7918427 27.2629787,72.6169775 27.2098723,72.6241348 C25.824,72.8378315 24.5126809,71.8848876 24.2951489,70.4892135 C24.0796596,69.0935393 25.0355745,67.7868202 26.429617,67.5710787 C26.6645106,67.5352921 32.2682553,66.6784607 38.4520851,66.6784607 C44.6348936,66.6784607 50.2396596,67.5352921 50.4745532,67.5710787 C51.8675745,67.7868202 52.8224681,69.0925169 52.608,70.4871685 Z M57.4723404,67.4187303 C55.6891915,65.6334944 55.6871489,62.7378539 57.4723404,60.9515955 C59.2554894,59.1663596 62.148766,59.1663596 63.9308936,60.9515955 C65.7160851,62.7378539 65.7150638,65.6345169 63.9329362,67.4187303 C62.148766,69.2049888 59.2554894,69.2049888 57.4723404,67.4187303 Z" id="Shape" fill-rule="nonzero"></path>
                </g>
            </g>
        </g>
    </g>
</svg>