<?xml version="1.0" encoding="UTF-8"?>
<svg width="111px" height="85px" viewBox="0 0 111 85" version="1.1" xmlns="http://www.w3.org/2000/svg" xmlns:xlink="http://www.w3.org/1999/xlink">
    <g id="Page-1" stroke="none" stroke-width="1" fill="none" fill-rule="evenodd">
        <g id="Artboard" transform="translate(-742.000000, -1519.000000)" fill="#21989D" fill-rule="nonzero">
            <g id="reduce-congestion" transform="translate(742.000000, 1519.000000)">
                <path d="M69.4342145,51.9788132 L73.7952526,49.9315649 C73.8293167,49.9155538 73.8528627,49.8884814 73.8822345,49.8671224 C74.6517338,49.4328406 75.178439,48.6171529 75.178439,47.6721726 C75.178439,46.277616 74.0439006,45.1430776 72.648782,45.1430776 C72.6372618,45.1430776 72.6266596,45.1463416 72.6151394,45.1464961 C72.610241,45.146749 72.6059045,45.1443514 72.6009593,45.1447587 L68.2090274,45.5072033 C67.335678,45.5794477 66.5789304,46.1251237 66.2335647,46.9313283 L65.5241808,48.5356314 C65.1635204,47.7057215 64.8178502,46.9057358 64.4947661,46.1564294 C58.0209177,31.1405235 57.2664601,30.7069583 37.588915,30.6904368 C37.5883529,30.6904368 37.5877911,30.6904368 37.5872337,30.6904368 C17.9096863,30.7069584 17.1552309,31.1405236 10.6814294,46.1564294 C10.3586508,46.9052253 10.0133905,47.7043446 9.6532417,48.5333367 L8.94487524,46.9313283 C8.59951183,46.1251237 7.84276189,45.5794477 6.96941137,45.5072033 L2.57747655,45.1447587 C2.57258228,45.1443513 2.56819785,45.1467489 2.56330346,45.1464961 C2.55178092,45.1463416 2.54117639,45.1430776 2.52965385,45.1430776 C1.13453902,45.1430776 0,46.277616 0,47.6721726 C0,48.617153 0.526712222,49.4328406 1.29620802,49.8671224 C1.32557447,49.8884814 1.34912926,49.9155538 1.38318631,49.9315649 L5.74427602,51.9788132 C4.09424127,53.0836287 2.69973669,54.6101285 2.14228186,56.2800497 C0.240438703,62.1761015 0.239215259,68.3093841 2.14355625,74.0589613 C2.55744171,75.2647279 3.43390117,76.3594984 4.53152819,77.251102 L4.53152819,82.9728904 C4.53152819,84.0147431 5.38397508,84.8671875 6.42577497,84.8671875 L16.1066512,84.8671875 C17.1485015,84.8671875 18.0008969,84.0147431 18.0008969,82.9728904 L18.0008969,79.55133 C31.059695,79.5512737 44.118697,79.5512737 57.1775443,79.55133 L57.1775443,82.9728904 C57.1775443,84.0147431 58.0299935,84.8671875 59.0718414,84.8671875 L68.7526662,84.8671875 C69.7945188,84.8671875 70.6469118,84.0147431 70.6469118,82.9728904 L70.6469118,77.2510459 C71.7444874,76.3594984 72.6209463,75.264728 73.034885,74.0589613 C74.9392787,68.3094309 74.9380049,62.1761015 73.0361588,56.2800497 C72.4786584,54.6100771 71.0842001,53.0835772 69.4342145,51.9788132 Z M18.6140782,66.7562146 C18.4018825,66.7653465 14.7939743,66.9144246 11.5491207,66.9144246 C9.85524026,66.9144246 8.25986064,66.8745537 7.29825805,66.7516814 C6.42149243,66.6401794 5.79729915,66.271469 5.44224898,65.6558339 C4.6525121,64.2879983 5.55604445,62.1361274 6.04140929,60.9810963 C6.30254685,60.3586333 6.99612789,58.7074817 9.00804537,58.313736 C13.2321424,57.4807634 17.0471453,58.7780403 19.5495263,59.8203988 C21.1443439,60.486095 22.0968217,61.8527598 22.0968217,63.4777664 C22.0968218,65.3770087 20.6322639,66.7562146 18.6140782,66.7562146 Z M12.7772662,50.1155643 C13.1696363,49.2133584 13.5426843,48.349389 13.8915648,47.5401779 C16.8269465,40.7317674 18.3005778,37.3144873 20.9599888,35.7942065 C23.7533823,34.1983703 28.6674909,34.1936264 37.5881003,34.1862366 C46.5092178,34.1936264 51.4233264,34.1983703 54.2156008,35.7942065 C56.8761286,37.3144873 58.3498137,40.7317674 61.2845821,47.5401779 C61.6336662,48.3493375 62.0069706,49.2132552 62.3995455,50.1155643 C45.8700366,49.2416015 29.3067751,49.241653 12.7772662,50.1155643 Z M53.0816196,63.4777664 C53.0816196,61.8527598 54.0340974,60.486095 55.6289173,59.8203988 C58.131296,58.7780403 61.9462976,57.4807634 66.1703959,58.313736 C68.182311,58.7074817 68.8758944,60.3586334 69.137032,60.9810963 C69.6223957,62.1361274 70.5259316,64.2879983 69.7361923,65.6558339 C69.3811421,66.271469 68.7569512,66.6401794 67.8801832,66.7516814 C66.918583,66.8745536 65.323201,66.9144246 63.6293216,66.9144246 C60.3844645,66.9144246 56.7765586,66.7653463 56.5643631,66.7562146 C54.5461775,66.7562146 53.0816196,65.3770087 53.0816196,63.4777664 Z" id="Shape"></path>
                <path d="M91.148251,29.3068643 L94.6370872,27.6690357 C94.6643422,27.6562793 94.6831585,27.6346204 94.7066483,27.6175509 C95.322246,27.270106 95.7436588,26.6175267 95.7436588,25.861519 C95.7436588,24.7458671 94.8360487,23.838257 93.7199332,23.838257 C93.7106609,23.838257 93.7022222,23.8409169 93.6930435,23.8410105 C93.6891004,23.8411932 93.6856163,23.8392638 93.6816639,23.8396338 L90.1681389,24.1295342 C89.4693996,24.1873504 88.8640764,24.6239032 88.5877613,25.2688679 L88.0202486,26.5522785 C87.7317203,25.8884086 87.4552179,25.2484033 87.1966981,24.6489572 C82.0176307,12.6361912 81.4140496,12.2893901 65.6720087,12.2761747 L65.670721,12.2761747 C49.9286755,12.2893901 49.325099,12.6361912 44.1460269,24.6489572 C43.8877882,25.2480333 43.6116511,25.8873081 43.323488,26.5504427 L42.7568042,25.2688679 C42.4804844,24.6239032 41.875077,24.1873503 41.1764265,24.1295342 L37.662897,23.8396338 C37.6589538,23.8392638 37.6554651,23.8411932 37.6515173,23.8410105 C37.6423433,23.8409169 37.6338062,23.838257 37.6246276,23.838257 C36.5085168,23.838257 35.6009067,24.7458671 35.6009067,25.861519 C35.6009067,26.6175267 36.0222259,27.270106 36.6378188,27.6175509 C36.6613133,27.6346204 36.6802186,27.6562792 36.7074736,27.6690357 L39.2890743,28.8809558 C57.2840871,28.9723584 59.4088481,30.3039522 65.5711512,44.4354241 C66.1900504,44.0228247 66.915408,43.7629282 67.6892156,43.6983217 L72.3012339,43.3268342 C72.3408801,43.3268342 72.3805264,43.3283047 72.4187021,43.3283047 L72.430447,43.3297705 C74.9266114,43.3973132 76.9367468,45.4485701 76.9367468,47.9608813 C76.9367468,49.275312 76.3462968,50.4957692 75.3844484,51.3648336 L81.3429337,51.3648336 L81.3429337,54.1021671 C81.3429337,54.9356268 82.0248799,55.6175729 82.8583396,55.6175729 L90.6030386,55.6175729 C91.4364983,55.6175729 92.1184445,54.9356268 92.1184445,54.1021671 L92.1184445,49.5246531 C92.9965049,48.8114104 93.6976327,47.935551 94.0288324,46.9709536 C95.5523211,42.3713217 95.5513096,37.4647154 94.0298439,32.7478918 C93.5838361,31.411896 92.4682732,30.1907035 91.148251,29.3068643 Z M45.8226774,27.8162361 C46.136625,27.0944564 46.4350625,26.4033362 46.7141359,25.7559832 C49.0624535,20.3092198 50.2413398,17.5753727 52.3688545,16.3591396 C54.6035582,15.0825193 58.5349181,15.0787565 65.6713625,15.0727904 C72.8082705,15.0787565 76.7395368,15.0825193 78.9734163,16.3591396 C81.1017599,17.5753727 82.2807304,20.3092198 84.6285938,25.7559832 C84.9078498,26.4032425 85.2064746,27.0944564 85.5205065,27.8162361 C72.2969256,27.1171268 59.0463566,27.1171268 45.8226774,27.8162361 Z M91.3898839,40.2484855 C91.1058512,40.7410142 90.6064385,41.0359676 89.9050298,41.1251691 C89.1357178,41.2234557 87.8594627,41.255389 86.5043837,41.255389 C83.9084718,41.255389 81.0221021,41.1360899 80.8524187,41.1287469 C79.2378084,41.1287469 78.0661714,40.0253878 78.0661714,38.5060342 C78.0661714,37.2060131 78.8281405,36.1126616 80.1040302,35.5801167 C82.1059144,34.7462871 85.1579213,33.7084525 88.5371944,34.3747997 C90.1467564,34.6897588 90.7015969,36.0107036 90.9105613,36.5086505 C91.2988466,37.4326885 92.0216284,39.1542114 91.3898839,40.2484855 Z" id="Shape"></path>
                <path d="M68.2474233,10.4047624 L68.2427449,10.3941179 C68.0217594,9.8781837 67.5373931,9.52890529 66.9784175,9.48274503 L64.1675799,9.25074743 C64.164461,9.25047342 64.1617074,9.25203286 64.1585839,9.25185032 C64.151152,9.25175665 64.1443617,9.24964699 64.1370187,9.24964699 C63.4026698,9.24964699 62.8060711,9.75025614 62.6084911,10.4211903 C63.7171699,10.4055889 64.8785279,10.396045 66.1631279,10.3949422 C66.8979358,10.395586 67.5715322,10.400173 68.2474233,10.4047624 Z M84.6501215,25.8637891 C84.6794933,25.8652549 84.7073944,25.8667253 84.7367568,25.8674606 L85.1155825,25.6626266 L84.6501215,25.8637891 Z M106.955966,13.6245327 L109.74699,12.3143237 C109.768832,12.3040468 109.783883,12.286701 109.80269,12.2730267 C110.295134,11.9951475 110.632206,11.4730645 110.632206,10.8682962 C110.632206,9.97573497 109.906118,9.24964687 109.013278,9.24964687 C109.005851,9.24964687 108.999061,9.25175653 108.991718,9.2518502 C108.988599,9.25203286 108.985845,9.25047342 108.982633,9.2507473 L106.17179,9.48274491 C105.612904,9.52890517 105.128542,9.87818358 104.907467,10.3941178 L104.45348,11.4209381 C104.222674,10.8897701 104.001412,10.3777812 103.794658,9.8981892 C99.6514024,0.288068174 99.1685955,0.0105530908 86.5749235,0 L86.5738182,0 C73.9802398,0.0105530908 73.4973394,0.288068174 69.3541772,9.8981892 C69.2846115,10.0597055 69.2051412,10.2425129 69.1324564,10.4108197 C69.9829855,10.4199046 70.7914849,10.4334876 71.5510704,10.4547766 C73.3316927,6.32684582 74.2760174,4.21327708 75.9323813,3.2663908 C77.7201592,2.24507543 80.8652359,2.24204788 86.5743708,2.23727355 C92.2839647,2.24204788 95.4289476,2.24507543 97.2159951,3.2663908 C98.9187954,4.23934025 99.8619214,6.42641787 101.740193,10.7837753 C101.963562,11.3016366 102.202526,11.8545548 102.453703,12.4319744 C95.4015054,12.0592014 88.3400356,11.9581636 81.2814131,12.0825109 C84.5188945,13.678586 86.2529867,16.7695085 88.8818481,22.7876412 C89.3663969,22.4903042 89.9228953,22.3038229 90.5146284,22.255368 L94.2794238,21.9440851 L94.3616571,21.9602367 C96.404096,22.0387938 98.0412877,23.7244311 98.0412877,25.7852319 C98.0412877,27.1118666 97.3408904,28.348199 96.2029335,29.0434543 L95.9386349,29.206441 L94.8682254,29.7093425 C95.2803659,30.2060062 95.5941355,30.7336854 95.8596235,31.2709086 L99.1116971,31.2709086 L99.1116971,33.4607399 C99.1116971,34.127546 99.657181,34.6731189 100.323982,34.6731189 L106.519689,34.6731189 C107.1865,34.6731189 107.732068,34.1275461 107.732068,33.4607399 L107.732068,29.7987268 C108.434489,29.2281888 108.995483,28.52752 109.260324,27.7558243 C110.479128,24.0761001 110.478304,20.1507954 109.261158,16.3772827 C108.904352,15.3085215 108.011877,14.3316242 106.955966,13.6245327 Z M107.149242,22.3777908 C106.921921,22.7718549 106.522443,23.007798 105.961355,23.0791948 C105.345945,23.1578409 104.324904,23.1833539 103.24082,23.1833539 C101.164055,23.1833539 98.8550133,23.0879146 98.7191973,23.0820374 C97.4276196,23.0820374 96.4902725,22.1993923 96.4902725,20.9838897 C96.4902725,19.943854 97.0998104,19.0691888 98.1205709,18.643189 C99.7220595,17.9760176 102.16362,17.1457681 104.867091,17.6788632 C106.154716,17.9308666 106.598617,18.9876041 106.765724,19.3859813 C107.076375,20.1251911 107.654621,21.502395 107.149242,22.3777908 Z" id="Shape"></path>
            </g>
        </g>
    </g>
</svg>