<?xml version="1.0" encoding="UTF-8"?>
<svg width="96px" height="80px" viewBox="0 0 96 80" version="1.1" xmlns="http://www.w3.org/2000/svg" xmlns:xlink="http://www.w3.org/1999/xlink">
    <g id="Page-1" stroke="none" stroke-width="1" fill="none" fill-rule="evenodd">
        <g id="Artboard" transform="translate(-165.000000, -1523.000000)" fill="#21989D" fill-rule="nonzero">
            <g id="reduce-journeys" transform="translate(165.000000, 1523.000000)">
                <path d="M55.1,66.8 C54.5,64.7 54.1,62.5 54.1,60.3 C54.1,56.6 55,53 56.7,49.8 C54.4,47.5 54.4,43.7 56.7,41.3 L57.6,40.4 C59.9,38.1 63.7,38.1 66,40.3 C66.2,40.2 66.5,40.1 66.7,39.9 C66.7,39.9 66.7,39.9 66.7,39.9 C66.4,39.2 66.2,38.3 66.2,37.5 L66.2,36.2 C66.2,32.9 68.9,30.2 72.2,30.2 L81.2,30.2 C81.7,30.2 82.3,30.3 82.8,30.4 C82.2,29.7 81.6,29.1 81,28.4 C80.8,28.2 80.6,28.2 80.4,28 C80.5,27.9 80.5,27.8 80.6,27.7 C81.3,27.7 82,27.7 82.6,27.7 C84.3,27.7 86,27.7 87.7,27.7 C89.4,27.7 90.5,26.6 90.6,24.9 C90.6,23.8 90.6,22.6 90.6,21.5 C90.5,19.9 89.5,18.8 87.9,18.8 C87.3,18.8 86.7,18.8 86.1,18.8 C82.8,18.8 80.5,22.6 80.5,22.6 C80.3,23.1 80,23.5 79.6,24.1 C79.2,22.7 78.9,21.5 78.6,20.4 C77.2,15.4 75,10.7 72,6.5 C69.9,3.5 66.9,2.5 63.6,1.9 C57.6,0.9 51.5,0.8 45.5,0.8 C39.4,0.8 33.4,0.9 27.4,1.9 C24.1,2.5 21.1,3.6 19,6.5 C16,10.8 13.8,15.4 12.4,20.4 C12.1,21.5 11.8,22.7 11.4,24.1 C11,23.4 10.7,23 10.5,22.6 C10.5,22.6 8.2,18.8 4.9,18.8 C4.3,18.8 3.7,18.8 3.1,18.8 C1.5,18.9 0.5,20 0.4,21.5 C0.4,22.6 0.4,23.8 0.4,24.9 C0.4,26.6 1.6,27.7 3.3,27.7 C5,27.7 6.7,27.7 8.4,27.7 C9.1,27.7 9.8,27.7 10.4,27.7 C10.5,27.8 10.5,27.9 10.6,28 C10.4,28.1 10.1,28.2 10,28.4 C5.7,32.5 3.4,37.5 3.5,43.5 C3.6,47.1 3.9,50.6 4.3,54.2 C4.6,56.9 5.2,59.6 6.5,62.1 C7,63.2 7.7,64 8.9,64.2 C9.5,64.3 9.5,64.7 9.5,65.1 C9.5,66.6 9.5,68 9.5,69.5 C9.5,71.6 10.7,72.8 12.8,72.8 C14.6,72.8 16.3,72.8 18.1,72.8 C20.4,72.8 21.5,71.6 21.5,69.4 C21.5,68.3 21.5,67.1 21.5,65.9 C29.6,66.5 37.6,66.8 45.6,66.8 C48.7,67 51.9,66.9 55.1,66.8 Z M16.5,25.1 C17.8,19.7 19.8,14.7 22.6,9.9 C22.8,9.6 22.9,9.4 23.1,9.3 C23.1,9.3 23.1,9.3 23.1,9.3 C23.3,9.1 23.5,9 23.8,8.9 C25.6,8.1 31,6.5 45.4,6.4 C59.8,6.5 65.2,8.1 67,8.9 C67.3,9 67.5,9.1 67.7,9.3 C67.7,9.3 67.7,9.3 67.7,9.3 C67.9,9.5 68.1,9.7 68.2,9.9 C71,14.6 73,19.7 74.3,25.1 C74.4,25.5 74.4,25.9 74.5,26.1 C64.8,25.3 55,24.8 45.3,24.8 C35.6,24.8 25.9,25.2 16.1,26.1 C16.3,25.9 16.4,25.5 16.5,25.1 Z M18,48 C14.5,48 11.6,45.1 11.6,41.6 C11.6,38.1 14.5,35.2 18,35.2 C21.5,35.2 24.4,38.1 24.4,41.6 C24.3,45.1 21.5,48 18,48 Z M78.8,60.4 C78.8,61.5 77.9,62.4 76.8,62.4 C75.7,62.4 74.8,61.5 74.8,60.4 C74.8,60.3 74.8,60.3 74.8,60.2 L70,55.4 L69.8,55.2 C69.6,55 69.6,54.8 69.8,54.6 L71.1,53.3 C71.3,53.1 71.5,53.1 71.7,53.3 L71.9,53.5 L73,54.6 L76.7,58.3 C76.8,58.3 76.8,58.3 76.9,58.3 C77.9,58.3 78.8,59.2 78.8,60.4 Z M92.1,49.2 L94.2,47.1 C95.1,46.2 95.1,44.8 94.2,43.9 L93.3,43 C92.4,42.1 91,42.1 90.1,43 L88,45.1 C85.5,43.2 82.4,41.9 79.1,41.5 L79.1,39.8 L81.2,39.8 C82.4,39.8 83.5,38.8 83.5,37.5 L83.5,36.2 C83.5,35 82.5,33.9 81.2,33.9 L76.7,33.9 L72.2,33.9 C71,33.9 69.9,34.9 69.9,36.2 L69.9,37.5 C69.9,38.7 70.9,39.8 72.2,39.8 L74.3,39.8 L74.3,41.5 C71,41.9 68,43.2 65.4,45.1 L63.4,43.1 C62.5,42.2 61.1,42.2 60.2,43.1 L59.3,44 C58.4,44.9 58.4,46.3 59.3,47.2 L61.4,49.3 C59.2,52.4 57.8,56.2 57.8,60.4 C57.8,70.8 66.3,79.3 76.7,79.3 C87.1,79.3 95.6,70.8 95.6,60.4 C95.7,56.2 94.4,52.3 92.1,49.2 Z M76.8,72.6 C70,72.6 64.4,67.1 64.4,60.2 C64.4,53.4 69.9,47.8 76.8,47.8 C83.6,47.8 89.2,53.3 89.2,60.2 C89.2,67.1 83.6,72.6 76.8,72.6 Z" id="Shape"></path>
            </g>
        </g>
    </g>
</svg>