<?xml version="1.0" encoding="UTF-8"?>
<svg width="84px" height="85px" viewBox="0 0 84 85" version="1.1" xmlns="http://www.w3.org/2000/svg" xmlns:xlink="http://www.w3.org/1999/xlink">
    <g id="Page-1" stroke="none" stroke-width="1" fill="none" fill-rule="evenodd">
        <g id="Artboard" transform="translate(-165.000000, -949.000000)" fill="#1F52A3">
            <g id="Motivation" transform="translate(165.000000, 720.000000)">
                <g id="reporting" transform="translate(0.000000, 229.000000)">
                    <g id="Group">
                        <path d="M0.284745763,84.4333333 L83.5728814,84.4333333 L83.5728814,0.566666667 L0.284745763,0.566666667 L0.284745763,84.4333333 Z M2.42033898,2.69166667 L81.4372881,2.69166667 L81.4372881,82.2375 L2.42033898,82.2375 L2.42033898,2.69166667 Z" id="Shape" fill-rule="nonzero"></path>
                        <path d="M37.3016949,20.4708333 L31.9627119,20.4708333 L31.9627119,37.4708333 L37.3016949,37.4708333 L37.3016949,20.4708333 Z M35.1661017,35.3458333 L34.0983051,35.3458333 L34.0983051,22.5958333 L35.1661017,22.5958333 L35.1661017,35.3458333 Z" id="Shape" fill-rule="nonzero"></path>
                        <path d="M29.8271186,27.625 L24.4881356,27.625 L24.4881356,37.4708333 L29.8271186,37.4708333 L29.8271186,27.625 Z M27.6915254,35.3458333 L26.6237288,35.3458333 L26.6237288,29.75 L27.6915254,29.75 L27.6915254,35.3458333 Z" id="Shape" fill-rule="nonzero"></path>
                        <path d="M22.4237288,8.99583333 L17.0847458,8.99583333 L17.0847458,37.4708333 L22.4237288,37.4708333 L22.4237288,8.99583333 Z M20.2881356,35.3458333 L19.220339,35.3458333 L19.220339,11.1208333 L20.2881356,11.1208333 L20.2881356,35.3458333 Z" id="Shape" fill-rule="nonzero"></path>
                        <path d="M14.9491525,14.9458333 L9.61016949,14.9458333 L9.61016949,37.4708333 L14.9491525,37.4708333 L14.9491525,14.9458333 Z M12.8135593,35.3458333 L11.7457627,35.3458333 L11.7457627,17.0708333 L12.8135593,17.0708333 L12.8135593,35.3458333 Z" id="Shape" fill-rule="nonzero"></path>
                        <path d="M40.2915254,39.7375 L7.18983051,39.7375 L7.18983051,5.87916667 C7.18983051,5.3125 6.69152542,4.81666667 6.1220339,4.81666667 C5.55254237,4.81666667 5.05423729,5.3125 5.05423729,5.87916667 L5.05423729,41.8625 L40.3627119,41.8625 C40.9322034,41.8625 41.4305085,41.3666667 41.4305085,40.8 C41.4305085,40.2333333 40.9322034,39.7375 40.2915254,39.7375 Z" id="Path"></path>
                        <path d="M73.5355932,57.4458333 C73.5355932,57.8708333 73.6779661,58.225 73.820339,58.5083333 L69.1220339,63.325 C68.7661017,63.1125 68.2677966,62.9708333 67.840678,62.9708333 C67.2711864,62.9708333 66.7728814,63.1125 66.3457627,63.3958333 L62.0745763,59.5708333 C62.0745763,59.4291667 62.1457627,59.2875 62.1457627,59.2166667 C62.1457627,57.8708333 60.9355932,56.7375 59.5118644,56.7375 C58.0881356,56.7375 56.8779661,57.8708333 56.8779661,59.2166667 C56.8779661,59.3583333 56.8779661,59.5 56.9491525,59.5708333 L53.1050847,62.9708333 C52.9627119,62.9708333 52.7491525,62.9 52.5355932,62.9 C51.040678,62.9 49.9016949,64.0333333 49.9016949,65.3791667 C49.9016949,66.725 51.1118644,67.8583333 52.5355932,67.8583333 C53.959322,67.8583333 55.1694915,66.725 55.1694915,65.3791667 C55.1694915,64.9541667 55.0271186,64.6 54.8135593,64.2458333 L58.159322,61.2708333 C58.5864407,61.4833333 59.0135593,61.625 59.5118644,61.625 C60.0101695,61.625 60.4372881,61.4833333 60.8644068,61.2708333 L65.2779661,65.1666667 C65.2779661,65.2375 65.2779661,65.3083333 65.2779661,65.3791667 C65.2779661,66.725 66.4881356,67.8583333 67.9118644,67.8583333 C69.3355932,67.8583333 70.5457627,66.725 70.5457627,65.3791667 C70.5457627,65.2375 70.5457627,65.0958333 70.4745763,64.9541667 L75.6,59.7125 C75.8135593,59.7833333 76.0271186,59.7833333 76.240678,59.7833333 C77.7355932,59.7833333 78.8745763,58.65 78.8745763,57.3041667 C78.8745763,55.9583333 77.6644068,54.825 76.240678,54.825 C74.8169492,54.825 73.5355932,56.1 73.5355932,57.4458333 Z" id="Path"></path>
                        <path d="M77.8779661,77.9166667 L48.2644068,77.9166667 L48.2644068,47.6708333 C48.2644068,47.1041667 47.7661017,46.6083333 47.1966102,46.6083333 C46.6271186,46.6083333 46.1288136,47.1041667 46.1288136,47.6708333 L46.1288136,80.0416667 L77.8779661,80.0416667 C78.4474576,80.0416667 78.9457627,79.5458333 78.9457627,78.9791667 C78.9457627,78.4125 78.4474576,77.9166667 77.8779661,77.9166667 Z" id="Path"></path>
                        <path d="M47.2677966,24.65 C47.2677966,32.5125 53.6745763,38.8875 61.5762712,38.8875 C69.4779661,38.8875 75.8847458,32.5125 75.8847458,24.65 C75.8847458,16.7875 69.4779661,10.4125 61.5762712,10.4125 L60.5084746,10.4125 L60.5084746,23.5875 L47.2677966,23.5875 L47.2677966,24.65 Z M62.5728814,25.7125 L62.5728814,12.6083333 C68.7661017,13.175 73.6779661,18.3458333 73.6779661,24.65 C73.6779661,31.3083333 68.1966102,36.7625 61.5050847,36.7625 C55.1694915,36.7625 49.9728814,31.875 49.4033898,25.7125 L62.5728814,25.7125 Z" id="Shape" fill-rule="nonzero"></path>
                        <path d="M58.8,6.65833333 L57.7322034,6.65833333 C49.8305085,6.65833333 43.4237288,13.0333333 43.4237288,20.8958333 L43.4237288,21.9583333 L58.8,21.9583333 L58.8,6.65833333 Z M56.6644068,19.8333333 L45.6305085,19.8333333 C46.1288136,14.025 50.8271186,9.35 56.6644068,8.85416667 L56.6644068,19.8333333 Z" id="Shape" fill-rule="nonzero"></path>
                        <rect id="Rectangle" x="7.54576271" y="54.4708333" width="29.3288136" height="2.125"></rect>
                        <rect id="Rectangle" x="7.54576271" y="59.5708333" width="29.3288136" height="2.125"></rect>
                        <rect id="Rectangle" x="7.54576271" y="64.6708333" width="29.3288136" height="2.125"></rect>
                        <rect id="Rectangle" x="7.54576271" y="69.7708333" width="29.3288136" height="2.125"></rect>
                    </g>
                </g>
            </g>
        </g>
    </g>
</svg>